<?xml version="1.0" encoding="UTF-8"?><svg xmlns="http://www.w3.org/2000/svg" xmlns:xlink="http://www.w3.org/1999/xlink" height="3782.2" preserveAspectRatio="xMidYMid meet" version="1.0" viewBox="45.4 45.4 3782.2 3782.2" width="3782.2" zoomAndPan="magnify"><g clip-rule="evenodd" fill-rule="evenodd"><g id="change1_1"><circle cx="1936.49" cy="1936.49" fill="#f60" r="1891.11"/></g><g fill="#fff" id="change2_1"><path d="M2955.32,3223.94c-67.13,0-102.36-96.76-102.36-192.42c0-95.58,35.14-192.42,102.36-192.42 c16.31,0,29.47,13.24,29.47,29.47c0,16.31-13.24,29.47-29.47,29.47c-12.61,0-43.34,46.8-43.34,133.48 c0,86.68,30.73,133.48,43.34,133.48c16.31,0,29.47,13.24,29.47,29.47C2984.79,3210.78,2971.56,3223.94,2955.32,3223.94z"/><path d="M2955.32,2006.23h-482.39c-128.28,0-232.68-104.33-232.68-232.61s104.4-232.61,232.68-232.61 h482.39c16.31,0,29.47,13.24,29.47,29.47c0,16.31-13.24,29.47-29.47,29.47h-482.39c-95.74,0-173.67,77.93-173.67,173.67 s77.93,173.67,173.67,173.67h482.39c16.31,0,29.47,13.24,29.47,29.47C2984.79,1993.07,2971.56,2006.23,2955.32,2006.23 L2955.32,2006.23z"/><path d="M2537,1717.99c-25.37,0-46.1,20.64-46.1,46.1s20.64,46.1,46.1,46.1 c25.37,0,46.1-20.64,46.1-46.1C2583.01,1738.63,2562.37,1717.99,2537,1717.99z M2537,1869.04c-57.92,0-105.03-47.12-105.03-105.04 c0-57.92,47.12-105.04,105.03-105.04c57.92,0,105.04,47.12,105.04,105.04C2642.03,1822,2594.91,1869.04,2537,1869.04z"/><path d="M1197.62,2839.18h1728.23V707.98H1197.62V2839.18L1197.62,2839.18z M2955.32,2898.12H1168.07 c-16.31,0-29.47-13.24-29.47-29.47V678.51c0-16.31,13.16-29.47,29.47-29.47h1787.17c16.31,0,29.47,13.24,29.47,29.47v2190.14 C2984.79,2884.88,2971.56,2898.12,2955.32,2898.12L2955.32,2898.12z"/><path d="M1648.49,891.97h-117.96c-16.31,0-29.47-13.24-29.47-29.47c0-16.31,13.24-29.47,29.47-29.47 h117.96c16.31,0,29.47,13.24,29.47,29.47C1677.96,878.81,1664.72,891.97,1648.49,891.97z M1943.27,891.97h-117.96 c-16.31,0-29.47-13.24-29.47-29.47c0-16.31,13.24-29.47,29.47-29.47h117.96c16.31,0,29.47,13.24,29.47,29.47 C1972.74,878.81,1959.58,891.97,1943.27,891.97z M2238.12,891.97h-117.96c-16.31,0-29.47-13.24-29.47-29.47 c0-16.31,13.16-29.47,29.47-29.47h117.96c16.31,0,29.47,13.24,29.47,29.47C2267.59,878.81,2254.43,891.97,2238.12,891.97z M2532.98,891.97h-117.96c-16.31,0-29.47-13.24-29.47-29.47c0-16.31,13.16-29.47,29.47-29.47h117.96 c16.31,0,29.47,13.24,29.47,29.47C2562.45,878.81,2549.21,891.97,2532.98,891.97z M2771.34,948.47 c-16.31,0-29.47-13.24-29.47-29.47v-26.95h-31.91c-16.31,0-29.55-13.24-29.55-29.47c0-16.31,13.24-29.47,29.47-29.47h61.46 c16.31,0,29.47,13.24,29.47,29.47V919C2800.81,935.23,2787.57,948.47,2771.34,948.47L2771.34,948.47z M1352.14,1008.35 c-16.31,0-29.47-13.24-29.47-29.47V862.5c0-16.31,13.16-29.47,29.47-29.47h1.5c16.31,0,29.47,13.24,29.47,29.47 c0,3.23-0.55,6.38-1.5,9.3v107.08C1381.61,995.19,1368.37,1008.35,1352.14,1008.35z M2771.34,1243.24 c-16.31,0-29.47-13.24-29.47-29.47v-117.96c0-16.31,13.24-29.47,29.47-29.47c16.31,0,29.47,13.24,29.47,29.47v117.96 C2800.81,1230.09,2787.57,1243.24,2771.34,1243.24L2771.34,1243.24z M1352.14,1303.21c-16.31,0-29.47-13.24-29.47-29.47v-117.96 c0-16.31,13.16-29.47,29.47-29.47s29.47,13.24,29.47,29.47v117.96C1381.61,1290.05,1368.37,1303.21,1352.14,1303.21 L1352.14,1303.21z M2771.34,1538.1c-16.31,0-29.47-13.24-29.47-29.47v-117.96c0-16.31,13.24-29.47,29.47-29.47 c16.31,0,29.47,13.24,29.47,29.47v117.96C2800.81,1524.94,2787.57,1538.1,2771.34,1538.1L2771.34,1538.1z M1352.14,1598.06 c-16.31,0-29.47-13.24-29.47-29.47v-117.96c0-16.31,13.16-29.47,29.47-29.47s29.47,13.24,29.47,29.47v117.96 C1381.61,1584.82,1368.37,1598.06,1352.14,1598.06L1352.14,1598.06z M1352.14,1892.92c-16.31,0-29.47-13.24-29.47-29.47v-117.96 c0-16.31,13.16-29.47,29.47-29.47s29.47,13.24,29.47,29.47v117.96C1381.61,1879.68,1368.37,1892.92,1352.14,1892.92 L1352.14,1892.92z M2771.34,2124.11c-16.31,0-29.47-13.16-29.47-29.47v-117.96c0-16.31,13.24-29.47,29.47-29.47 c16.31,0,29.47,13.24,29.47,29.47v117.96C2800.81,2110.95,2787.57,2124.11,2771.34,2124.11L2771.34,2124.11z M1352.14,2187.69 c-16.31,0-29.47-13.24-29.47-29.47v-117.96c0-16.31,13.16-29.47,29.47-29.47s29.47,13.24,29.47,29.47v117.96 C1381.61,2174.53,1368.37,2187.69,1352.14,2187.69L1352.14,2187.69z M2771.34,2418.96c-16.31,0-29.47-13.16-29.47-29.47v-117.96 c0-16.31,13.24-29.47,29.47-29.47c16.31,0,29.47,13.24,29.47,29.47v117.96C2800.81,2405.8,2787.57,2418.96,2771.34,2418.96z M1352.14,2482.55c-16.31,0-29.47-13.24-29.47-29.47v-117.96c0-16.31,13.16-29.47,29.47-29.47s29.47,13.24,29.47,29.47v117.96 C1381.61,2469.31,1368.37,2482.55,1352.14,2482.55L1352.14,2482.55z M2771.34,2713.81c-16.31,0-29.47-13.16-29.47-29.47v-117.96 c0-16.31,13.24-29.47,29.47-29.47c16.31,0,29.47,13.24,29.47,29.47v117.96C2800.81,2700.66,2787.57,2713.81,2771.34,2713.81 L2771.34,2713.81z M1415.41,2714.13h-63.27c-16.31,0-29.47-13.24-29.47-29.47v-54.68c0-16.31,13.16-29.47,29.47-29.47 s29.47,13.24,29.47,29.47v25.21h33.8c16.31,0,29.47,13.24,29.47,29.47C1444.88,2700.89,1431.65,2714.13,1415.41,2714.13 L1415.41,2714.13z M1710.19,2714.13h-117.96c-16.31,0-29.47-13.24-29.47-29.47c0-16.31,13.24-29.47,29.47-29.47h117.96 c16.31,0,29.47,13.24,29.47,29.47C1739.66,2700.89,1726.5,2714.13,1710.19,2714.13z M2005.04,2714.13h-117.96 c-16.31,0-29.47-13.24-29.47-29.47c0-16.31,13.24-29.47,29.47-29.47h117.96c16.31,0,29.47,13.24,29.47,29.47 C2034.51,2700.89,2021.36,2714.13,2005.04,2714.13z M2299.9,2714.13h-117.96c-16.31,0-29.47-13.24-29.47-29.47 c0-16.31,13.24-29.47,29.47-29.47h117.96c16.31,0,29.47,13.24,29.47,29.47C2329.37,2700.89,2316.13,2714.13,2299.9,2714.13z M2594.68,2714.13h-117.96c-16.31,0-29.47-13.24-29.47-29.47c0-16.31,13.24-29.47,29.47-29.47h117.96 c16.31,0,29.47,13.24,29.47,29.47C2624.22,2700.89,2610.99,2714.13,2594.68,2714.13z"/><path d="M2955.32,3223.94H1194.71c-78.95,0-153.73-18.44-210.7-51.93 c-61.85-36.32-95.89-86.28-95.89-140.49c0-54.29,34.04-104.17,95.89-140.49c56.89-33.49,131.75-51.93,210.7-51.93 c16.31,0,29.47,13.24,29.47,29.47c0,16.31-13.24,29.47-29.47,29.47c-68.55,0-132.77,15.52-180.76,43.73 c-43.1,25.37-66.82,57.21-66.82,89.67s23.72,64.38,66.82,89.67c47.99,28.21,112.21,43.73,180.76,43.73h1760.62 c16.31,0,29.47,13.24,29.47,29.47C2984.79,3210.78,2971.56,3223.94,2955.32,3223.94L2955.32,3223.94z"/><path d="M917.66,3061.07c-16.31,0-29.47-13.24-29.47-29.47V900.48c0-16.31,13.16-29.47,29.47-29.47 c16.31,0,29.47,13.16,29.47,29.47V3031.6C947.13,3047.83,933.97,3061.07,917.66,3061.07L917.66,3061.07z"/><path d="M917.66,929.95c-16.31,0-29.47-13.24-29.47-29.47c0-138.68,125.6-251.44,279.88-251.44 c16.31,0,29.47,13.24,29.47,29.47c0,16.31-13.24,29.47-29.47,29.47c-121.82,0-220.94,86.36-220.94,192.5 C947.13,916.79,933.97,929.95,917.66,929.95z"/></g></g><path d="M0 0H3872.98V3872.98H0z" fill="none"/></svg>