<?xml version="1.0" encoding="UTF-8"?><svg xmlns="http://www.w3.org/2000/svg" xmlns:xlink="http://www.w3.org/1999/xlink" height="3782.2" preserveAspectRatio="xMidYMid meet" version="1.0" viewBox="45.4 45.4 3782.2 3782.2" width="3782.2" zoomAndPan="magnify"><g clip-rule="evenodd" fill-rule="evenodd"><g id="change1_1"><circle cx="1936.5" cy="1936.5" fill="#63f" r="1891.1"/></g><g fill="#fefefe" id="change2_1"><path d="M947.9,2246.4h1977.2V984.2c0-95.5-77.7-173.3-173.3-173.3H1121.1 c-95.5,0-173.3,77.8-173.3,173.3L947.9,2246.4L947.9,2246.4z M2954.1,2304.4H918.9c-16,0-29-12.9-29-29V984.2 c0-127.5,103.8-231.3,231.3-231.3h1630.7c127.5,0,231.3,103.8,231.3,231.3v1291.2C2983.1,2291.5,2970.1,2304.4,2954.1,2304.4 L2954.1,2304.4z"/><path d="M1123.9,2076.4h1625.2V984.2c0-0.9-1.9-3.2-4.3-3.2H1128.4c-2.4,0-4.4,2.3-4.4,3.2 L1123.9,2076.4L1123.9,2076.4z M2778,2134.4H1094.9c-16,0-29-13-29-29V984.2c0-33.2,28.5-61.2,62.3-61.2h1616.4 c33.8,0,62.3,28.1,62.3,61.2v1121.3C2807,2121.4,2794.1,2134.4,2778,2134.4L2778,2134.4z"/><path d="M3006.9,3120.1H866c-68,0-137.3-32.4-172.5-80.7c-22.7-31-29.2-66.7-18.4-100.5l216.1-672.4 c4.9-15.3,21.2-23.6,36.5-18.8c15.3,4.9,23.6,21.3,18.8,36.5l-216.1,672.3c-5.2,16.1-1.8,32.5,9.9,48.6 c24,32.9,76.8,56.8,125.6,56.8h2141c48.8,0,101.6-24,125.5-56.8c11.8-16.2,15.1-32.5,9.9-48.6l-215.9-672.3 c-4.9-15.3,3.5-31.6,18.8-36.5c15.3-4.9,31.6,3.5,36.5,18.8l216,672.4c10.9,33.8,4.4,69.5-18.3,100.5 C3144.2,3087.6,3074.9,3120.1,3006.9,3120.1L3006.9,3120.1z"/><path d="M2331.3,3120.1c-11.1,0-21.7-6.5-26.6-17.3l-79.7-180.4h-577.3l-79.7,180.4 c-6.5,14.7-23.6,21.3-38.3,14.8c-14.7-6.5-21.3-23.6-14.8-38.3l87.4-197.7c4.6-10.6,15.1-17.3,26.6-17.3h615.1 c11.5,0,21.9,6.8,26.6,17.3l87.4,197.7c6.5,14.7-0.2,31.8-14.8,38.3C2339.3,3119.2,2335.3,3120.1,2331.3,3120.1L2331.3,3120.1z"/><path d="M1163.1,2437.3h-131.2c-16,0-29-13-29-29s13-29,29-29h131.2c16,0,29,13,29,29 S1179.1,2437.3,1163.1,2437.3L1163.1,2437.3z"/><path d="M1442.8,2437.3h-131.2c-16,0-29-13-29-29s13-29,29-29h131.2c16,0,29,13,29,29 S1458.8,2437.3,1442.8,2437.3L1442.8,2437.3z"/><path d="M1722.4,2437.3h-131.2c-16,0-29-13-29-29s13-29,29-29h131.2c16,0,29,13,29,29 C1751.5,2424.3,1738.4,2437.3,1722.4,2437.3z"/><path d="M2002.1,2437.3h-131.2c-16,0-29-13-29-29s13-29,29-29h131.2c16,0,29,13,29,29 S2018.1,2437.3,2002.1,2437.3L2002.1,2437.3z"/><path d="M2281.7,2437.3h-131.2c-16,0-29-13-29-29s13-29,29-29h131.2c16,0,29,13,29,29 S2297.8,2437.3,2281.7,2437.3L2281.7,2437.3z"/><path d="M2561.4,2437.3h-131.2c-16,0-29-13-29-29s13-29,29-29h131.2c16,0,29,13,29,29 S2577.4,2437.3,2561.4,2437.3z"/><path d="M2841.1,2437.3h-131.2c-16,0-29-13-29-29s12.9-29,28.9-29H2841c16.1,0,29,13,29,29 C2870.1,2424.3,2857.1,2437.3,2841.1,2437.3L2841.1,2437.3z"/><path d="M1163.1,2613.3h-131.2c-16,0-29-13-29-29s13-29,29-29h131.2c16,0,29,13,29,29 S1179.1,2613.3,1163.1,2613.3L1163.1,2613.3z"/><path d="M1442.8,2613.3h-131.2c-16,0-29-13-29-29s13-29,29-29h131.2c16,0,29,13,29,29 S1458.8,2613.3,1442.8,2613.3L1442.8,2613.3z"/><path d="M1722.4,2613.3h-131.2c-16,0-29-13-29-29s13-29,29-29h131.2c16,0,29,13,29,29 C1751.5,2600.3,1738.4,2613.3,1722.4,2613.3z"/><path d="M2002.1,2613.3h-131.2c-16,0-29-13-29-29s13-29,29-29h131.2c16,0,29,13,29,29 S2018.1,2613.3,2002.1,2613.3L2002.1,2613.3z"/><path d="M2281.7,2613.3h-131.2c-16,0-29-13-29-29s13-29,29-29h131.2c16,0,29,13,29,29 S2297.8,2613.3,2281.7,2613.3L2281.7,2613.3z"/><path d="M2561.4,2613.3h-131.2c-16,0-29-13-29-29s13-29,29-29h131.2c16,0,29,13,29,29 S2577.4,2613.3,2561.4,2613.3z"/><path d="M2841.1,2613.3h-131.2c-16,0-29-13-29-29s12.9-29,28.9-29H2841c16.1,0,29,13,29,29 C2870.1,2600.3,2857.1,2613.3,2841.1,2613.3L2841.1,2613.3z"/><path d="M1163.1,2789.5h-131.2c-16,0-29-12.9-29-29c0-16,13-29,29-29h131.2c16,0,29,13,29,29 C1192.1,2776.5,1179.1,2789.5,1163.1,2789.5L1163.1,2789.5z"/><path d="M1442.8,2789.5h-131.2c-16,0-29-12.9-29-29c0-16,13-29,29-29h131.2c16,0,29,13,29,29 C1471.8,2776.5,1458.8,2789.5,1442.8,2789.5L1442.8,2789.5z"/><path d="M2281.7,2789.5h-690.5c-16,0-29-12.9-29-29c0-16,13-29,29-29h690.5c16,0,29,13,29,29 C2310.7,2776.5,2297.8,2789.5,2281.7,2789.5z"/><path d="M2561.4,2789.5h-131.2c-16,0-29-12.9-29-29c0-16,13-29,29-29h131.2c16,0,29,13,29,29 C2590.4,2776.5,2577.4,2789.5,2561.4,2789.5z"/><path d="M2841.1,2789.5h-131.2c-16,0-29-12.9-29-29c0-16,12.9-29,28.9-29H2841c16.1,0,29,13,29,29 C2870.1,2776.5,2857.1,2789.5,2841.1,2789.5L2841.1,2789.5z"/><path d="M1935,1116.6c-153.4,0-278.3,124.8-278.3,278.3s124.9,278.2,278.2,278.2 c153.5,0,278.2-124.8,278.2-278.2C2213.2,1241.4,2088.4,1116.6,1935,1116.6L1935,1116.6z M1935,1731.1 c-185.4,0-336.3-150.8-336.3-336.3c0-185.4,150.8-336.3,336.3-336.3c185.4,0,336.3,150.8,336.3,336.3S2120.4,1731.1,1935,1731.1 L1935,1731.1z"/><path d="M1879.5,1315.7v158.5l137.3-79.3L1879.5,1315.7L1879.5,1315.7z M1850.5,1553.4 c-5,0-10-1.3-14.5-3.9c-9-5.2-14.5-14.7-14.5-25.1v-259c0-10.3,5.5-19.9,14.5-25.1c9-5.2,20-5.2,29,0l224.3,129.5 c9,5.2,14.5,14.7,14.5,25.1c0,10.4-5.5,19.9-14.5,25.1L1865,1549.5C1860.5,1552,1855.5,1553.4,1850.5,1553.4L1850.5,1553.4z"/><path d="M1415.2,1903.8h-124.3c-16,0-29-13-29-29s13-29,29-29h124.3c16,0,29,13,29,29 C1444.2,1890.8,1431.2,1903.8,1415.2,1903.8L1415.2,1903.8z M2582.1,1903.8H1553.3c-16,0-29-13-29-29s13-29,29-29h1028.8 c16,0,29,13,29,29S2598.1,1903.8,2582.1,1903.8L2582.1,1903.8z"/><path d="M1444.2,1940.7h80.1v-131.9h-80.1V1940.7L1444.2,1940.7z M1553.2,1998.7h-138.1 c-16,0-29-13-29-29v-189.9c0-16,13-29,29-29h138.1c16,0,29,13,29,29v189.9C1582.3,1985.7,1569.3,1998.7,1553.2,1998.7 L1553.2,1998.7z"/></g></g><path d="M0 0H3873V3873H0z" fill="none"/></svg>