<?xml version="1.0" encoding="UTF-8"?><svg xmlns="http://www.w3.org/2000/svg" xmlns:xlink="http://www.w3.org/1999/xlink" height="3782.2" preserveAspectRatio="xMidYMid meet" version="1.0" viewBox="45.4 45.4 3782.2 3782.2" width="3782.2" zoomAndPan="magnify"><g><linearGradient gradientTransform="matrix(72 0 0 72 -130248.906 -102942.992)" gradientUnits="userSpaceOnUse" id="a" x1="1816.997" x2="1854.82" xlink:actuate="onLoad" xlink:show="other" xlink:type="simple" xmlns:xlink="http://www.w3.org/1999/xlink" y1="1437.748" y2="1475.571"><stop offset="0" stop-color="#f84d9a"/><stop offset="1" stop-color="#a10556"/></linearGradient><circle clip-rule="evenodd" cx="1936.5" cy="1936.5" fill="url(#a)" fill-rule="evenodd" r="1891.1"/><g clip-rule="evenodd" fill="#fefefe" fill-rule="evenodd" id="change1_1"><path d="M746.4,2193.9c-9.9,0-18.4,8.4-18.4,18.4v391.1c0,9.9,8.4,18.3,18.3,18.3h135.5 c9.9,0,18.3-8.4,18.3-18.3v-391.1c0-9.9-8.4-18.3-18.4-18.3L746.4,2193.9L746.4,2193.9z M881.9,2679.6H746.4 c-42.1,0-76.4-34.2-76.4-76.3v-391.1c0-42.1,34.2-76.3,76.4-76.3h135.5c42.1,0,76.3,34.3,76.3,76.4v391.1 C958.2,2645.4,924,2679.6,881.9,2679.6L881.9,2679.6z"/><path d="M2991.2,2193.9c-9.9,0-18.4,8.4-18.4,18.4v391.1c0,9.9,8.4,18.3,18.3,18.3h135.5 c9.9,0,18.3-8.4,18.3-18.3v-391.1c0-9.9-8.4-18.3-18.3-18.3L2991.2,2193.9L2991.2,2193.9z M3126.6,2679.6h-135.5 c-42.1,0-76.4-34.2-76.4-76.3v-391.1c0-42.1,34.2-76.3,76.3-76.3h135.5c42.1,0,76.3,34.3,76.3,76.4v391.1 C3202.9,2645.4,3168.6,2679.6,3126.6,2679.6L3126.6,2679.6z"/><path d="M2848.2,2064.5c-36.7,0-66.7,29.9-66.7,66.6v553.3c0,36.7,29.9,66.6,66.6,66.6 s66.6-29.9,66.6-66.6v-553.3C2914.8,2094.4,2885,2064.5,2848.2,2064.5z M2848.2,2809c-68.7,0-124.7-55.9-124.7-124.6v-553.3 c0-68.7,55.9-124.6,124.6-124.6l0,0c68.7,0,124.6,55.9,124.6,124.6v553.3C2972.8,2753.1,2917,2809,2848.2,2809L2848.2,2809z"/><path d="M814.2,2193.9c-16,0-29-13-29-29c0-255.5,82-497.6,237.3-700c9.7-12.7,28-15.1,40.7-5.4 c12.8,9.8,15.1,28,5.4,40.7c-147.4,192.2-225.4,422-225.4,664.7C843.2,2180.9,830.2,2193.9,814.2,2193.9L814.2,2193.9z M3058.9,2193.9c-16.1,0-29-13-29-29c0-242.7-77.9-472.5-225.3-664.7c-9.8-12.7-7.3-30.9,5.4-40.7s30.9-7.3,40.7,5.4 c155.2,202.4,237.3,444.5,237.3,700C3087.9,2180.9,3074.9,2193.9,3058.9,2193.9L3058.9,2193.9L3058.9,2193.9z"/><path d="M1036.1,1346.4L1036.1,1346.4L1036.1,1346.4z M1936.5,1108.2c148.8,0,292.6,30.3,427.3,89.8 c135.5,59.9,254.8,146.1,354.8,256.1c24.3,26.7,65.8,28.7,92.5,4.3c12.9-11.7,20.5-27.9,21.4-45.3c0.8-17.5-5.2-34.2-16.9-47.1 c-112.5-123.7-246.7-220.6-399-287.9c-151.6-67.1-313.1-101.1-480-101.1c-166.8,0-328.3,34-479.9,101.1 c-152.3,67.4-286.5,164.2-399,287.9l0,0c-11.7,12.9-17.8,29.7-16.9,47.1c0.8,17.5,8.4,33.6,21.3,45.3 c26.7,24.3,68.2,22.4,92.5-4.3c100.1-110,219.4-196.2,354.8-256.1C1643.9,1138.4,1787.6,1108.2,1936.5,1108.2L1936.5,1108.2 L1936.5,1108.2z M2767.2,1533.4c-2,0-3.9,0-5.9-0.2c-32.9-1.6-63.3-15.8-85.5-40.3c-94.6-104-207.4-185.5-335.4-242.1 c-127.3-56.3-263.1-84.9-403.8-84.9s-276.6,28.5-403.8,84.9c-128,56.6-240.8,138.1-335.4,242.1c-45.9,50.4-124.1,54.1-174.5,8.2 c-24.3-22.2-38.7-52.6-40.3-85.5c-1.6-32.9,9.8-64.5,32-88.9l0,0c117.9-129.7,258.7-231.3,418.4-301.9 c159.1-70.4,328.4-106.1,503.4-106.1s344.3,35.7,503.5,106.1c159.7,70.7,300.4,172.2,418.4,301.9c22.1,24.3,33.6,55.9,32,88.9 c-1.5,32.9-15.8,63.3-40.3,85.5C2827.2,1522.2,2798,1533.4,2767.2,1533.4L2767.2,1533.4z"/><path d="M1602.5,2668.8c94.1,0,194.3,19,305,57.3v-746.7c-162.2-90.5-313.5-90.7-461.6-0.7v708.8 C1496.7,2675,1548.5,2668.8,1602.5,2668.8L1602.5,2668.8z M1936.5,2796.4c-3.5,0-6.9-0.6-10.3-1.9 c-194.7-73.7-353.8-86.8-500.7-41.2c-8.8,2.8-18.4,1.1-25.8-4.3c-7.4-5.5-11.8-14.1-11.8-23.3v-763.1c0-9.8,5-19,13.3-24.3 c174.5-112.5,359.5-112.7,549.9-0.6c8.9,5.2,14.3,14.7,14.3,25v804.8c0,9.5-4.7,18.4-12.5,23.9 C1948.1,2794.7,1942.3,2796.4,1936.5,2796.4L1936.5,2796.4z"/><path d="M1936.5,2796.4c-11.5,0-22.3-6.9-26.9-18.1c-6-14.9,1.2-31.8,16.1-37.7 c177.5-71.6,342-88.8,501.4-52.2v-709.6c-152.5-92.7-308.3-89.7-475.8,8.9c-13.8,8.1-31.6,3.5-39.7-10.3 c-8.1-13.8-3.5-31.6,10.2-39.7c190.5-112.1,375.5-111.9,549.9,0.6c8.4,5.4,13.3,14.5,13.3,24.3v763.1c0,9.1-4.3,17.7-11.5,23.2 c-7.2,5.4-16.7,7.2-25.5,4.8c-158.1-44.8-321.9-31.4-500.7,40.7C1943.8,2795.8,1940.1,2796.4,1936.5,2796.4L1936.5,2796.4 L1936.5,2796.4z"/><path d="M1936.5,2954.1c-3.5,0-6.9-0.6-10.3-1.9c-222-84-403.8-122.3-623.7-54.1 c-8.8,2.8-18.4,1.1-25.8-4.3s-11.8-14.1-11.8-23.3v-775.7c0-16,13-29,29-29c16,0,29,13,29,29v737.1 c215.3-56.6,402.7-16.6,613.3,62c232-92,413.4-110.4,613.9-61.1v-738c0-16,13-29,29-29s29,13,29,29v775.7 c0,9.1-4.3,17.7-11.5,23.1c-7.2,5.4-16.6,7.2-25.5,4.8c-204.9-58-385.6-42.5-623.8,53.6 C1943.9,2953.4,1940.2,2954.1,1936.5,2954.1L1936.5,2954.1L1936.5,2954.1z"/><path d="M1936.5,2954.1c-16,0-29-13-29-29v-157.7c0-16,13-29,29-29s29,13,29,29v157.7 C1965.5,2941.1,1952.5,2954.1,1936.5,2954.1L1936.5,2954.1z"/><path d="M2579.1,2123.8H2456c-16,0-29-13-29-29s13-29,29-29h123.1c16,0,29,13,29,29 S2595.1,2123.8,2579.1,2123.8L2579.1,2123.8z"/><path d="M1417,2123.8h-123.1c-16,0-29-13-29-29s13-29,29-29H1417c16,0,29,13,29,29 S1433,2123.8,1417,2123.8L1417,2123.8z"/><path d="M1024.7,2064.5c-36.7,0-66.6,29.9-66.6,66.6v553.3c0,36.7,29.9,66.6,66.5,66.6 c36.8,0,66.6-29.9,66.6-66.6v-553.3C1091.4,2094.4,1061.5,2064.5,1024.7,2064.5L1024.7,2064.5z M1024.7,2809 c-68.7,0-124.6-55.9-124.6-124.6v-553.3c0-68.7,55.9-124.6,124.6-124.6c68.7,0,124.6,55.9,124.6,124.6v553.3 C1149.4,2753.1,1093.5,2809,1024.7,2809L1024.7,2809z"/></g></g><path d="M0 0H3873V3873H0z" fill="none"/></svg>