<?xml version="1.0" encoding="UTF-8" standalone="no"?><svg xmlns="http://www.w3.org/2000/svg" xmlns:xlink="http://www.w3.org/1999/xlink" fill="#fffffe" height="312.4" preserveAspectRatio="xMidYMid meet" version="1" viewBox="0.4 0.8 365.0 312.4" width="365" zoomAndPan="magnify"><g id="change1_1"><path d="M 90.773438 189.171875 L 19.976562 189.171875 C 9.152344 189.160156 0.382812 180.386719 0.378906 169.5625 L 0.378906 98.511719 C 0.390625 87.691406 9.15625 78.921875 19.976562 78.90625 L 90.773438 78.90625 C 93.640625 78.90625 95.964844 81.230469 95.964844 84.097656 L 95.964844 183.984375 C 95.964844 186.851562 93.640625 189.171875 90.773438 189.171875 Z M 19.976562 89.285156 C 14.886719 89.292969 10.761719 93.421875 10.757812 98.511719 L 10.757812 169.5625 C 10.757812 174.65625 14.882812 178.789062 19.976562 178.792969 L 85.585938 178.792969 L 85.585938 89.285156 Z M 19.976562 89.285156" fill="inherit"/><path d="M 241.769531 250.40625 C 241.101562 250.40625 240.4375 250.273438 239.816406 250.019531 L 88.8125 188.789062 C 86.855469 187.996094 85.574219 186.089844 85.574219 183.980469 L 85.574219 84.097656 C 85.574219 81.984375 86.855469 80.082031 88.8125 79.285156 L 239.816406 18.054688 C 243.230469 16.667969 246.960938 19.179688 246.957031 22.863281 L 246.957031 245.214844 C 246.957031 248.082031 244.636719 250.40625 241.769531 250.40625 Z M 95.964844 180.480469 L 236.589844 237.5 L 236.589844 30.570312 L 95.964844 87.59375 Z M 95.964844 180.480469" fill="inherit"/><path d="M 259.546875 267.265625 C 246.867188 267.253906 236.589844 256.976562 236.578125 244.296875 L 236.578125 23.757812 C 236.578125 11.074219 246.863281 0.789062 259.546875 0.789062 C 272.230469 0.789062 282.515625 11.074219 282.515625 23.757812 L 282.515625 244.296875 C 282.503906 256.976562 272.226562 267.253906 259.546875 267.265625 Z M 259.546875 11.183594 C 252.597656 11.191406 246.964844 16.828125 246.957031 23.777344 L 246.957031 244.320312 C 246.957031 251.269531 252.59375 256.90625 259.546875 256.90625 C 266.5 256.90625 272.136719 251.269531 272.136719 244.320312 L 272.136719 23.777344 C 272.128906 16.828125 266.5 11.191406 259.546875 11.183594 Z M 259.546875 11.183594" fill="inherit"/><path d="M 89.429688 313.195312 L 56.109375 313.195312 C 48.421875 313.1875 41.828125 307.707031 40.414062 300.148438 L 18.964844 184.949219 C 18.359375 181.753906 20.8125 178.792969 24.066406 178.792969 L 79.3125 178.792969 C 81.8125 178.792969 83.953125 180.578125 84.410156 183.035156 L 105.132812 294.3125 C 105.996094 298.976562 104.738281 303.785156 101.707031 307.433594 C 98.671875 311.082031 94.175781 313.191406 89.429688 313.195312 Z M 30.316406 189.171875 L 50.621094 298.25 C 51.113281 300.894531 53.417969 302.8125 56.109375 302.816406 L 89.429688 302.816406 C 91.089844 302.816406 92.667969 302.078125 93.730469 300.800781 C 94.789062 299.523438 95.230469 297.839844 94.925781 296.207031 L 75 189.171875 Z M 30.316406 189.171875" fill="inherit"/><path d="M 277.324219 173.765625 C 274.460938 173.765625 272.136719 171.441406 272.136719 168.578125 L 272.136719 99.492188 C 272.136719 96.628906 274.460938 94.304688 277.324219 94.304688 C 299.089844 94.554688 316.605469 112.269531 316.605469 134.035156 C 316.605469 155.800781 299.089844 173.515625 277.324219 173.765625 Z M 282.515625 105.144531 L 282.515625 162.929688 C 296.503906 160.421875 306.683594 148.25 306.683594 134.039062 C 306.683594 119.824219 296.503906 107.65625 282.515625 105.144531 Z M 282.515625 105.144531" fill="inherit"/><path d="M 323.917969 92.683594 C 319.003906 92.683594 316.84375 86.488281 320.691406 83.433594 L 335.039062 72.054688 C 340.472656 67.757812 346.914062 75.902344 341.484375 80.199219 L 327.136719 91.5625 C 326.222656 92.289062 325.085938 92.683594 323.917969 92.683594 Z M 323.917969 92.683594" fill="inherit"/><path d="M 358.433594 139.226562 L 340.125 139.226562 C 333.207031 139.226562 333.207031 128.847656 340.125 128.847656 L 358.433594 128.847656 C 365.351562 128.847656 365.351562 139.226562 358.433594 139.226562 Z M 358.433594 139.226562" fill="inherit"/><path d="M 338.25 197.144531 C 337.082031 197.140625 335.949219 196.746094 335.035156 196.015625 L 320.691406 184.644531 C 318.445312 182.863281 318.066406 179.597656 319.84375 177.351562 C 321.625 175.105469 324.890625 174.726562 327.136719 176.507812 L 341.480469 187.890625 C 345.328125 190.949219 343.164062 197.144531 338.25 197.144531 Z M 338.25 197.144531" fill="inherit"/><path d="M 32.324219 171.304688 C 26.445312 171.304688 21.148438 167.765625 18.898438 162.335938 C 16.648438 156.90625 17.894531 150.660156 22.050781 146.503906 C 26.203125 142.347656 32.453125 141.105469 37.882812 143.351562 C 43.3125 145.601562 46.851562 150.898438 46.851562 156.777344 C 46.835938 164.792969 40.339844 171.289062 32.324219 171.304688 Z M 32.324219 152.585938 C 28.625 152.585938 26.773438 157.054688 29.386719 159.671875 C 32.003906 162.285156 36.472656 160.433594 36.472656 156.734375 C 36.472656 154.441406 34.617188 152.585938 32.324219 152.585938 Z M 32.324219 152.585938" fill="inherit"/></g></svg>