<?xml version="1.0" encoding="UTF-8"?><svg xmlns="http://www.w3.org/2000/svg" xmlns:xlink="http://www.w3.org/1999/xlink" height="512.0" preserveAspectRatio="xMidYMid meet" version="1.0" viewBox="0.0 0.0 512.0 512.0" width="512.0" zoomAndPan="magnify"><g id="change1_1"><circle cx="256" cy="256" fill="#415eb3" r="256"/></g><g><g id="change2_5"><path d="M354.3,406.7H175.7c-14.7,0-26.7-12-26.7-26.7v-8.9c0-1.9,1.5-3.4,3.4-3.4s3.4,1.5,3.4,3.4v8.9 c0,10.9,8.9,19.8,19.8,19.8h178.6c10.9,0,19.8-8.9,19.8-19.8V133c0-10.9-8.9-19.8-19.8-19.8H175.7c-10.9,0-19.8,8.9-19.8,19.8v8.9 c0,1.9-1.5,3.4-3.4,3.4s-3.4-1.5-3.4-3.4V133c0-14.7,12-26.7,26.7-26.7h178.6c14.7,0,26.7,12,26.7,26.7v247.1 C381,394.8,369,406.7,354.3,406.7z M152.5,354.2c-1.9,0-3.4-1.5-3.4-3.4v-12.9c0-1.9,1.5-3.4,3.4-3.4s3.4,1.5,3.4,3.4v12.9 C155.9,352.7,154.3,354.2,152.5,354.2z M152.5,321c-1.9,0-3.4-1.5-3.4-3.4v-34.3c0-1.9,1.5-3.4,3.4-3.4s3.4,1.5,3.4,3.4v34.3 C155.9,319.4,154.3,321,152.5,321z M152.5,266.4c-1.9,0-3.4-1.5-3.4-3.4v-12.9c0-1.9,1.5-3.4,3.4-3.4s3.4,1.5,3.4,3.4V263 C155.9,264.8,154.3,266.4,152.5,266.4z M152.5,233.1c-1.9,0-3.4-1.5-3.4-3.4v-34.3c0-1.9,1.5-3.4,3.4-3.4s3.4,1.5,3.4,3.4v34.3 C155.9,231.6,154.3,233.1,152.5,233.1z M152.5,178.5c-1.9,0-3.4-1.5-3.4-3.4v-12.9c0-1.9,1.5-3.4,3.4-3.4s3.4,1.5,3.4,3.4v12.9 C155.9,177,154.3,178.5,152.5,178.5z" fill="#fffffe"/></g><g id="change2_4"><path d="M195.7,406.7c-1.9,0-3.4-1.5-3.4-3.4V109.7c0-1.9,1.5-3.4,3.4-3.4s3.4,1.5,3.4,3.4v293.6 C199.1,405.2,197.5,406.7,195.7,406.7z" fill="#fffffe"/></g><g id="change2_12"><path d="M159.9,165.7h-15c-7.5,0-13.6-6.1-13.6-13.6s6.1-13.6,13.6-13.6h15c7.5,0,13.6,6.1,13.6,13.6 C173.5,159.6,167.4,165.7,159.9,165.7z M145,145.3c-3.7,0-6.8,3-6.8,6.8s3,6.8,6.8,6.8h15c3.7,0,6.8-3,6.8-6.8s-3-6.8-6.8-6.8H145 L145,145.3z" fill="#fffffe"/></g><g id="change2_11"><path d="M159.9,198.9h-15c-7.5,0-13.6-6.1-13.6-13.6s6.1-13.6,13.6-13.6h15c7.5,0,13.6,6.1,13.6,13.6 C173.5,192.8,167.4,198.9,159.9,198.9z M145,178.5c-3.7,0-6.8,3-6.8,6.8s3,6.8,6.8,6.8h15c3.7,0,6.8-3,6.8-6.8 c0-3.7-3-6.8-6.8-6.8H145L145,178.5z" fill="#fffffe"/></g><g id="change2_14"><path d="M159.9,253.5h-15c-7.5,0-13.6-6.1-13.6-13.6s6.1-13.6,13.6-13.6h15c7.5,0,13.6,6.1,13.6,13.6 S167.4,253.5,159.9,253.5z M145,233.1c-3.7,0-6.8,3-6.8,6.8c0,3.7,3,6.8,6.8,6.8h15c3.7,0,6.8-3,6.8-6.8s-3-6.8-6.8-6.8H145z" fill="#fffffe"/></g><g id="change2_2"><path d="M159.9,286.7h-15c-7.5,0-13.6-6.1-13.6-13.6s6.1-13.6,13.6-13.6h15c7.5,0,13.6,6.1,13.6,13.6 S167.4,286.7,159.9,286.7z M145,266.4c-3.7,0-6.8,3-6.8,6.8c0,3.7,3,6.8,6.8,6.8h15c3.7,0,6.8-3,6.8-6.8c0-3.7-3-6.8-6.8-6.8H145z" fill="#fffffe"/></g><g id="change2_10"><path d="M159.9,341.3h-15c-7.5,0-13.6-6.1-13.6-13.6s6.1-13.6,13.6-13.6h15c7.5,0,13.6,6.1,13.6,13.6 C173.5,335.2,167.4,341.3,159.9,341.3z M145,321c-3.7,0-6.8,3-6.8,6.8c0,3.7,3,6.8,6.8,6.8h15c3.7,0,6.8-3,6.8-6.8s-3-6.8-6.8-6.8 H145z" fill="#fffffe"/></g><g id="change2_6"><path d="M159.9,374.5h-15c-7.5,0-13.6-6.1-13.6-13.6s6.1-13.6,13.6-13.6h15c7.5,0,13.6,6.1,13.6,13.6 S167.4,374.5,159.9,374.5z M145,354.2c-3.7,0-6.8,3-6.8,6.8c0,3.7,3,6.8,6.8,6.8h15c3.7,0,6.8-3,6.8-6.8c0-3.7-3-6.8-6.8-6.8H145 L145,354.2z" fill="#fffffe"/></g><g id="change2_3"><path d="M347.6,176.4H225.5c-1.9,0-3.4-1.5-3.4-3.4v-37.4c0-1.9,1.5-3.4,3.4-3.4h122.1c1.9,0,3.4,1.5,3.4,3.4V173 C351.1,174.9,349.5,176.4,347.6,176.4z M229,169.6h115.3v-30.5H229V169.6L229,169.6z" fill="#fffffe"/></g><g id="change2_8"><path d="M338.5,337.3H234.7c-1.9,0-3.4-1.5-3.4-3.4V294c0-18.4,14.9-33.3,33.3-33.3h44c18.4,0,33.3,14.9,33.3,33.3 v39.8C341.9,335.8,340.4,337.3,338.5,337.3z M238.1,330.5h97V294c0-14.6-11.9-26.5-26.5-26.5h-44c-14.6,0-26.5,11.9-26.5,26.5 V330.5L238.1,330.5z" fill="#fffffe"/></g><g id="change2_15"><path d="M258.4,337.3c-1.9,0-3.4-1.5-3.4-3.4v-41.5c0-1.9,1.5-3.4,3.4-3.4s3.4,1.5,3.4,3.4v41.5 C261.8,335.8,260.2,337.3,258.4,337.3z" fill="#fffffe"/></g><g id="change2_9"><path d="M314.8,337.3c-1.9,0-3.4-1.5-3.4-3.4v-41.5c0-1.9,1.5-3.4,3.4-3.4s3.4,1.5,3.4,3.4v41.5 C318.2,335.8,316.7,337.3,314.8,337.3z" fill="#fffffe"/></g><g id="change2_13"><path d="M286.6,253c-17,0-30.8-13.8-30.8-30.8s13.8-30.8,30.8-30.8s30.8,13.8,30.8,30.8S303.6,253,286.6,253z M286.6,198.2c-13.2,0-24,10.8-24,24s10.8,24,24,24s24-10.8,24-24S299.8,198.2,286.6,198.2z" fill="#fffffe"/></g><g id="change2_7"><path d="M338.5,359H234.7c-1.9,0-3.4-1.5-3.4-3.4s1.5-3.4,3.4-3.4h103.8c1.9,0,3.4,1.5,3.4,3.4S340.4,359,338.5,359z" fill="#fffffe"/></g><g id="change2_1"><path d="M338.5,380.8H234.7c-1.9,0-3.4-1.5-3.4-3.4s1.5-3.4,3.4-3.4h103.8c1.9,0,3.4,1.5,3.4,3.4 S340.4,380.8,338.5,380.8z" fill="#fffffe"/></g></g></svg>