<?xml version="1.0" encoding="UTF-8"?><svg xmlns="http://www.w3.org/2000/svg" xmlns:xlink="http://www.w3.org/1999/xlink" clip-rule="evenodd" fill-rule="evenodd" height="169.3" image-rendering="optimizeQuality" preserveAspectRatio="xMidYMid meet" shape-rendering="geometricPrecision" text-rendering="geometricPrecision" version="1.0" viewBox="2.0 2.0 169.3 169.3" width="169.3" zoomAndPan="magnify"><g><g id="change1_1"><circle cx="86.699" cy="86.699" fill="#f4b400" r="84.667"/></g><g fill="#fff" id="change2_1"><path d="M69.8393 107.817c0,-1.169 -0.9477,-2.1167 -2.1167,-2.1167 -1.169,0 -2.1167,0.9477 -2.1167,2.1167 0,9.9789 5.5061,16.3807 12.5538,19.1942 2.7107,1.0822 5.633,1.6233 8.5388,1.6233 2.9058,0 5.8282,-0.5411 8.5389,-1.6233 7.0476,-2.8135 12.5538,-9.2153 12.5538,-19.1942 0,-1.169 -0.9477,-2.1167 -2.1167,-2.1167 -1.169,0 -2.1168,0.9477 -2.1168,2.1167 0,7.9739 -4.3311,13.062 -9.8747,15.2751 -2.1859,0.8726 -4.577,1.309 -6.9845,1.309 -2.4074,0 -4.7985,-0.4364 -6.9844,-1.309 -5.5436,-2.2131 -9.8748,-7.3012 -9.8748,-15.2751z" fill-rule="nonzero"/><path d="M86.6985 66.3892c7.5475,0 13.941,5.7673 14.718,13.2727l-5.511 0 0 2.4191 5.5897 0 0 6.0842 -5.5337 0 0 2.4191 5.5337 0 0 6.0842 -5.5337 0 0 2.4192 5.5337 0 0 6.0841 -5.5897 0 0 2.4192 5.511 0c-0.7691,7.4292 -7.0941,13.2726 -14.718,13.2726 -7.5475,0 -13.9409,-5.7672 -14.7179,-13.2726l5.485 0 0 -2.4192 -5.5637 0 0 -6.0841 5.5896 0 0 -2.4192 -5.5896 0 0 -6.0842 5.5896 0 0 -2.4191 -5.5896 0 0 -6.0842 5.5637 0 0 -2.4191 -5.485 0c0.7691,-7.4292 7.0941,-13.2727 14.7179,-13.2727z"/><path d="M86.6985 32.27c24.9802,0 41.1176,18.7767 42.4513,42.3703 0.2249,3.9745 -5.7999,4.3223 -6.0243,0.3401 -1.1491,-20.3927 -14.6593,-36.6763 -36.427,-36.6763 -21.7677,0 -35.2777,16.2836 -36.427,36.6763 -0.2241,3.9819 -6.249,3.6341 -6.0243,-0.3401 1.3337,-23.5936 17.4711,-42.3703 42.4513,-42.3703z"/><path d="M86.6986 49.9456c16.6094,0 26.1433,12.0781 27.3295,27.2196 0.3116,3.974 -5.7075,4.4458 -6.0139,0.4676 -0.9219,-11.9689 -7.8831,-21.6531 -21.3156,-21.6531 -13.4325,0 -20.3936,9.6842 -21.3156,21.6531 -0.3065,3.979 -6.3251,3.5036 -6.0139,-0.4676 1.1861,-15.1415 10.7201,-27.2196 27.3295,-27.2196z"/><path d="M88.8152 128.064L88.8152 134.594 84.5818 134.594 84.5818 128.064z" fill-rule="nonzero"/><rect height="6.9" rx="3.45" ry="3.45" width="25.577" x="73.91" y="134.227"/></g></g><path d="M0 0H173.397V173.397H0z" fill="none"/></svg>