<?xml version="1.0" encoding="UTF-8" standalone="no"?><svg xmlns="http://www.w3.org/2000/svg" xmlns:xlink="http://www.w3.org/1999/xlink" fill="#03989e" height="982.4" preserveAspectRatio="xMidYMid meet" version="1" viewBox="9.2 8.5 981.6 982.4" width="981.6" zoomAndPan="magnify"><g><g id="change1_1"><path d="M4530.1,5007.9C3377.4,4889,2339.7,4398,1530.4,3588.6C753.6,2811.8,285.6,1858.6,124.4,723.1c-32.6-226.3-32.6-982,0-1208.3c163-1137.4,629.1-2086.8,1405.9-2865.5c778.7-776.8,1728.1-1242.9,2865.5-1405.9c226.3-32.6,982-32.6,1208.3,0c790.2,113.2,1461.5,360.6,2100.2,778.7c521.7,341.4,1051.1,870.8,1392.5,1392.5c418.1,640.6,665.5,1310,778.7,2100.2c32.6,226.3,32.6,982,0,1208.3c-163,1137.4-629.1,2086.8-1405.9,2865.5c-759.5,759.5-1687.8,1223.7-2779.2,1392.5C5448.8,5017.5,4775.6,5034.8,4530.1,5007.9z M7608.5,166.9v-1812.5H5000H2391.5V166.9v1812.5H5000h2608.5V166.9z" transform="matrix(.1 0 0 -.1 0 512)"/><path d="M2702.2,1563.2l5.8-111.2l1147-711.6L5003.8,26.9l1148.9,721.2l1148.9,719.3V1569v103.6H5000H2696.5L2702.2,1563.2z" transform="matrix(.1 0 0 -.1 0 512)"/><path d="M2698.4,3.9c0-600.3,3.8-1093.3,7.7-1093.3c13.4,0,1122,1413.6,1135.5,1444.2c9.6,26.9-46,63.3-945.6,621.4l-197.5,120.8V3.9z" transform="matrix(.1 0 0 -.1 0 512)"/><path d="M6720.4,740.4c-314.6-195.6-569.6-362.5-565.8-370.2s260.8-337.6,571.6-732.7l565.8-721.2l5.7,544.7c1.9,299.2,1.9,788.3,0,1089.4l-5.7,548.5L6720.4,740.4z" transform="matrix(.1 0 0 -.1 0 512)"/><path d="M3521.2-558.1l-604.2-771l1041.5-5.8c573.5-1.9,1513.3-1.9,2088.7,0l1047.2,5.8l-579.2,738.4c-318.4,406.6-592.7,753.8-609.9,771c-30.7,30.7-57.5,17.3-445-228.2c-226.3-141.9-425.8-262.8-441.1-268.5C5001.9-320.2,4804.4-209,4578-69c-226.3,141.9-422,262.8-431.6,268.5C4135,205.3,3854.9-136.1,3521.2-558.1z" transform="matrix(.1 0 0 -.1 0 512)"/></g></g></svg>