<?xml version="1.0" encoding="UTF-8" standalone="no"?><svg xmlns="http://www.w3.org/2000/svg" xmlns:xlink="http://www.w3.org/1999/xlink" fill="#000000" height="373.3" preserveAspectRatio="xMidYMid meet" version="1" viewBox="0.0 -2.7 396.1 373.3" width="396.1" zoomAndPan="magnify"><g id="change1_1"><path d="M188.187,245.843c-0.004-0.006-0.004-0.013-0.008-0.019c-9.493-10.816-21.23-19.539-32.581-27.976 c-1.504-1.118-3.006-2.235-4.502-3.354c-0.008-0.006-0.02-0.004-0.028-0.01c-0.022-0.014-0.038-0.033-0.063-0.044 c-15.632-7.186-30.891-15.73-46.648-26.12c-0.033-0.023-0.07-0.042-0.108-0.056c0,0,0,0,0,0s0,0,0,0 c-0.018-0.007-0.036-0.012-0.055-0.017c-11.098-2.866-21.229-2.484-31.493-1.794c-0.078,0.006-0.154,0.03-0.222,0.069 c-4.615,2.75-9.314,5.482-13.934,8.156l-0.841,0.236c0,0,0,0-0.001,0c-0.026,0.007-0.04,0.031-0.063,0.042 c-0.048,0.022-0.101,0.035-0.141,0.072c-0.236,0.218-0.484,0.451-0.721,0.671c-0.667,0.386-1.334,0.771-1.996,1.154 c-10.911,6.304-22.193,12.823-33.018,19.778c-0.011,0.007-0.015,0.02-0.025,0.027c-0.045,0.034-0.082,0.076-0.115,0.124 c-0.012,0.018-0.026,0.032-0.036,0.052c-0.004,0.008-0.011,0.013-0.014,0.021c-7.201,16.903-13.874,34.334-20.327,51.191 l-1.186,3.098c-0.002,0.004-0.002,0.008-0.004,0.012l-0.025,0.066c-0.002,0.005-0.001,0.01-0.003,0.015 c-0.012,0.038-0.023,0.075-0.026,0.116c-0.001,0.013,0,0.024,0,0.037c0,0.024,0.002,0.046,0.005,0.069 c0.002,0.017-0.001,0.033,0.002,0.051c0.767,3.431,1.501,6.875,2.236,10.322c1.99,9.336,4.048,18.991,6.773,28.293 c0.016,0.056,0.042,0.108,0.077,0.155c4.125,5.633,6.729,7.024,12.591,9.296c0.01,0.004,0.02-0.002,0.03,0.001 c0.006,0.002,0.011,0.003,0.017,0.005c0.026,0.007,0.051,0.018,0.078,0.021c0.007,0.001,0.012,0.005,0.018,0.005 c1.681,0.126,3.38,0.236,5.09,0.345c9.09,0.588,18.489,1.194,27.067,4.324c4.55,0.924,7.937,1.919,11.046,3.461 c3.734,2.205,7.467,4.998,11.309,8.532c0.005,0.004,0.009,0.008,0.013,0.011c6.258,5.35,12.52,12.658,19.766,23.072 c8.567,8.361,16.856,10.4,29.157,11.236c0.002,0,0.004-0.001,0.006-0.001c0.015,0.001,0.029,0.002,0.044,0.002 c0.005,0,0.009-0.001,0.014-0.001l0,0c0.002,0,0.004,0,0.005,0l0.003,0c0.001,0,0.002-0.001,0.003,0l0,0 c0.001,0,0.001,0,0.002-0.001l0,0c0.001,0,0.002,0.001,0.003,0c0,0,0.001,0,0.003-0.001l0,0c0.001,0.001,0.002,0,0.003,0l0,0 c0,0,0.001,0,0.002-0.001l0,0c0.003,0,0.005,0,0.006-0.001s0.002,0,0.003,0c0.001,0,0.002-0.001,0.003-0.001 c0.001,0,0.002-0.001,0.003,0c0.002-0.001,0.004-0.001,0.006-0.002c0.012-0.001,0.024-0.004,0.035-0.007 c0.002,0,0.004,0,0.006-0.001c-0.001-0.001,0.001-0.001,0.003-0.001c0,0,0.001,0,0.003-0.001l0,0 c0.001-0.001,0.003-0.002,0.003-0.001c0.001,0,0.001,0,0.002-0.001l0,0c0.001,0,0.001,0,0.002-0.001 c0.001,0,0.002-0.001,0.003-0.001l0,0c0.003-0.001,0.007-0.002,0.01-0.003c0.043-0.013,0.085-0.032,0.124-0.057c0,0,0.001,0,0.001,0 c5.979-3.848,11.972-7.87,17.769-11.76c10.504-7.05,21.366-14.34,32.507-20.83c0.004-0.002,0.005-0.008,0.009-0.01 c0.009-0.005,0.019-0.007,0.027-0.013c0.075-0.053,0.124-0.128,0.161-0.21c0.004-0.009,0.016-0.013,0.019-0.023 c5.933-15.749,12.718-32.818,20.742-52.181c0.006-0.014,0.004-0.028,0.008-0.042c0.013-0.04,0.022-0.08,0.024-0.123 c0.001-0.024,0-0.047-0.003-0.071c-0.002-0.02,0.002-0.038-0.002-0.058c-0.536-2.551-1.065-5.103-1.595-7.656 c-2.149-10.356-4.371-21.065-6.959-31.502C188.27,245.96,188.232,245.898,188.187,245.843z M57.367,196.513 c0.031-0.018,0.063-0.036,0.094-0.054c1.197,9.797,2.348,12.934,3.92,17.219c0.361,0.982,0.744,2.027,1.156,3.23l-0.428,0.167 c-12.342,4.831-25.088,9.816-38.285,12.826C35.135,217.429,47.048,206.081,57.367,196.513z M153.028,222.323 c1.215,3.03,2.28,5.693,3.369,10.258c-12.561-10.917-25.756-19.901-42.095-28.614c3.827,1.212,7.635,2.471,11.356,3.702 c8.047,2.662,16.366,5.41,24.747,7.635C151.387,218.226,152.258,220.403,153.028,222.323z M151.515,330.126 c-5.981-0.525-12.177-0.603-18.176-0.678c-9.332-0.117-18.974-0.239-28.046-2.04c2.3-4.31,4.58-8.765,6.788-13.081 c8.179-15.984,16.631-32.502,28.308-46.201c1.252,6.967,2.469,13.939,3.686,20.911C146.429,302.518,148.862,316.451,151.515,330.126 z M111.191,313.872c-2.109,4.121-4.285,8.366-6.478,12.491l-0.916-3.808c-5.639-23.472-11.475-47.736-21.109-70.276 c24.885-7.385,37.279-0.81,57.289,14.801C128.046,280.946,119.476,297.68,111.191,313.872z M63.208,217.89 c10.632,9.045,14.031,18.841,18.185,33.711c-11.331,3.079-22.064,8.312-32.466,13.392c-7.609,3.717-15.464,7.553-23.488,10.505 c1.349-2.372,2.694-4.76,4.043-7.154C39.344,250.836,49.539,232.737,63.208,217.89z M102.824,322.788l0.888,3.69 c-15.214-11.933-26.927-18.071-46.643-18.243c6.529-12.574,12.248-25.827,17.78-38.649c2.324-5.386,4.722-10.944,7.151-16.384 C91.466,275.515,97.239,299.541,102.824,322.788z M114.516,213.26c13.142,9.944,18.471,28.689,23.174,45.235 c0.707,2.489,1.383,4.866,2.067,7.144c-19.467-15.1-31.919-21.503-56.088-14.691c-0.22,0.062-0.444,0.126-0.666,0.191 c0.878-1.689,1.761-3.455,2.687-5.307C92.11,232.989,100.1,216.988,114.516,213.26z M140.755,265.476 c-0.695-2.31-1.383-4.72-2.103-7.255c-4.52-15.9-9.616-33.805-21.669-44.24c9.534,3.087,18.267,8.124,26.725,13.033 c4.149,2.408,8.436,4.889,12.785,7.128C149.569,243.845,145.2,254.111,140.755,265.476z M157.229,234.822 c8.688,12.228,14.23,27.36,19.593,42.003c1.572,4.291,3.062,8.363,4.627,12.36c-12.424-4.063-23.695-11.519-34.604-18.736 c-1.853-1.226-3.697-2.446-5.536-3.643C145.846,255.158,150.216,244.679,157.229,234.822z M153.581,231.474 c-3.176-1.729-6.31-3.548-9.371-5.324c-9.166-5.32-18.645-10.813-29.175-13.829c-0.851-3.242-1.744-4.429-2.688-5.665 c-0.695-0.909-1.41-1.857-2.203-3.738C127.174,211.711,140.784,220.645,153.581,231.474z M111.551,207.264 c0.845,1.105,1.587,2.077,2.32,4.586c-12.251-5.037-25.5-2.42-37.792,1.044c-2.237,0.63-4.442,1.289-6.604,1.935 c-1.022,0.305-2.037,0.608-3.046,0.906c12.642-7.854,26.351-14.819,42.402-13.403C109.832,205.014,110.744,206.207,111.551,207.264z M69.762,215.787c14.426-4.308,29.332-8.757,43.351-3.166c-14.162,4.401-21.976,20.079-28.317,32.764 c-0.913,1.826-1.782,3.549-2.647,5.213c-4.068-14.478-7.57-24.185-17.968-33.174C66.018,216.892,67.878,216.35,69.762,215.787z M31.439,228.986c10.258-2.891,20.224-6.751,29.941-10.552c-13.195,14.697-23.145,32.334-32.769,49.419 c-1.278,2.269-2.554,4.524-3.832,6.773c-0.394-14.603-1.014-29.226-1.852-43.507C25.786,230.493,28.624,229.78,31.439,228.986z M5.227,263.566c5.43-10.229,11.036-20.79,16.778-31.097c0.823,14.271,1.433,28.874,1.814,43.444 c-8.919-0.314-13.651-1.099-22.622-4.762C2.542,268.623,3.884,266.094,5.227,263.566z M21.901,230.606 c-6.016,10.752-11.883,21.803-17.557,32.491c-0.157,0.296-0.314,0.591-0.471,0.887c5.651-14.75,11.492-29.851,17.717-44.59 c0.069,2.741,0.129,4.824,0.199,7.273L21.901,230.606z M3.626,281.687c-0.798-3.406-1.559-6.62-2.369-9.437 c8.811,3.56,13.626,4.344,22.508,4.659c-0.329,2.606-0.711,5.283-1.085,7.883c-1.587,11.02-3.217,22.401-1.475,33.352 C10.636,311.602,6.757,295.056,3.626,281.687z M23.67,284.936c0.339-2.353,0.688-4.775,0.995-7.149 c8.585,12.253,17.468,20.405,30.48,30.712c-6.153,1.597-12.275,3.565-18.205,5.47c-4.792,1.539-9.744,3.118-14.677,4.514 C20.414,307.53,22.069,296.046,23.67,284.936z M25.115,276.673c8.305-3.001,16.41-6.952,24.252-10.782 c10.192-4.978,20.714-10.096,31.75-13.158c-2.442,5.466-4.852,11.045-7.186,16.455c-5.553,12.871-11.297,26.172-17.851,38.771 C42.787,297.448,33.813,289.221,25.115,276.673z M103.619,327.679l-0.562,0.293c-8.404,4.388-16.346,8.529-26.092,7.455 c-6.115-9.696-12.038-17.602-19.608-26.184C76.829,309.475,88.407,315.679,103.619,327.679z M103.52,328.858l0.759-0.396 c1.019,2.527,2.002,5.086,3.039,7.785c4.48,11.665,9.108,23.715,16.793,33.185c-12.69-1.911-22.341-11.331-31.684-20.451 c-4.476-4.369-9.09-8.873-13.949-12.42C87.782,337.077,95.44,333.078,103.52,328.858z M125.286,369.288 c-7.825-9.416-12.506-21.605-17.035-33.399c-0.993-2.586-1.939-5.042-2.914-7.47c9.092,1.775,18.691,1.911,27.989,2.028 c5.917,0.074,12.019,0.164,17.905,0.671c-3.19,4.648-6.333,9.414-9.376,14.035C136.575,353.17,131.119,361.455,125.286,369.288z M145.06,288.865c-1.211-6.937-2.425-13.874-3.67-20.805c1.63,1.064,3.262,2.137,4.903,3.223 c11.046,7.308,22.465,14.851,35.128,18.935c-11.622,12.709-21.168,26.817-29.031,39.14 C149.782,315.876,147.381,302.154,145.06,288.865z M181.578,291.513c-2.13,15.017-4.24,30.036-6.349,45.057l-0.045,0.322 c-8.954-1.876-13.619-3.314-22.295-6.464C160.663,318.221,170.102,304.181,181.578,291.513z M182.747,290.391 c1.842-0.423,3.399-0.798,4.857-1.209c2.505-0.706,4.756-1.527,7.802-2.903c-7.116,17.199-13.251,32.588-18.683,46.857 C178.724,318.886,180.725,304.637,182.747,290.391z M182.054,287.97c-1.442-3.716-2.835-7.505-4.293-11.488 c-5.204-14.21-10.583-28.875-18.849-40.977c8.763,5.022,17.835,10.139,28.333,11.094c-1.508,12.682-3.16,25.548-4.758,37.998 L182.054,287.97z M155.001,218.651c10.975,8.157,22.312,16.584,31.585,26.886c-10.123-1.123-18.981-6.202-27.559-11.119 l-1.357-0.777c-1.211-5.451-2.372-8.346-3.713-11.69c-0.649-1.618-1.369-3.414-2.165-5.689 C152.859,217.059,153.929,217.855,155.001,218.651z M104.832,189.83c13.64,8.936,26.923,16.498,40.411,23.002 c-6.518-1.894-12.977-4.031-19.27-6.112c-5.375-1.778-10.931-3.616-16.468-5.285C107.4,198.334,106.309,196.234,104.832,189.83z M72.886,187.443c7.67-0.514,15.266-0.848,23.234,0.239c-11.481-0.088-22.391,2.744-33.709,5.91 C65.903,191.564,69.417,189.509,72.886,187.443z M103.66,189.183c1.438,6.449,2.488,8.911,4.299,11.73 c-12.219-4.04-25.178-4.676-37.725-5.292c-3.122-0.153-6.326-0.31-9.503-0.519C75.15,191.048,88.816,187.297,103.66,189.183z M70.186,196.62c11.696,0.574,23.751,1.175,35.173,4.539c-15.854-0.235-29.384,7.322-41.926,15.279 c-0.395-1.145-0.765-2.158-1.112-3.104c-1.57-4.278-2.713-7.41-3.913-17.394C62.325,196.234,66.318,196.43,70.186,196.62z M22.869,229.48l-0.081-2.842c-0.087-3.025-0.157-5.473-0.25-9.317c10.145-6.509,20.686-12.632,30.95-18.565 C43.864,207.75,33.119,218.157,22.869,229.48z M9.951,309.761c-1.213-4.149-2.295-8.372-3.297-12.607 c2.468,7.731,5.83,15.004,11.101,19.665C14.965,315.416,12.793,313.627,9.951,309.761z M54.255,323.32 c-3.689-1.349-7.529-2.234-11.432-2.851c5.115,0.639,9.904,1.726,14.575,3.549C56.408,323.775,55.364,323.545,54.255,323.32z M65.79,327.019c-12.225-7.316-24.413-8.37-40.377-8.411c3.988-1.176,7.962-2.446,11.832-3.689 c6.136-1.969,12.476-4.003,18.83-5.624c6.99,7.873,12.553,15.121,18.118,23.657C71.199,330.325,68.589,328.45,65.79,327.019z M96.878,358.712c-4.485-6.455-8.616-11.737-12.61-16.106c2.48,2.232,4.936,4.627,7.46,7.091 c7.828,7.641,15.874,15.478,25.785,19.066C109.498,367.512,103.233,364.904,96.878,358.712z M142.792,357.922 c-5.046,3.386-10.24,6.873-15.443,10.255c5.377-7.344,10.435-15.024,15.341-22.474c3.127-4.748,6.36-9.653,9.637-14.417 c8.616,3.134,13.313,4.6,21.918,6.428C163.466,344.055,152.96,351.098,142.792,357.922z M194.268,277.74 c0.503,2.423,1.006,4.847,1.514,7.268c-5.14,2.377-7.813,3.151-12.895,4.325l0.591-4.609c1.506-11.721,3.058-23.812,4.494-35.772 C190.28,258.52,192.305,268.277,194.268,277.74z" fill="#03989e"/></g><g id="change2_1"><path d="M244.187,82.174c-0.005-0.025-0.012-0.047-0.021-0.071c-0.005-0.014-0.004-0.028-0.01-0.041 c-1.447-3.178-2.866-6.376-4.286-9.576c-3.875-8.733-7.881-17.763-12.465-26.313c-0.028-0.051-0.063-0.097-0.107-0.136 c-5.411-4.86-8.428-5.533-14.205-6.485c-0.02-0.003-0.039,0.002-0.059,0.002c-0.024-0.001-0.047-0.006-0.071-0.004 c-0.005,0-0.009-0.002-0.014-0.001c-12.243,1.538-21.682,2.239-33.724,1.265c-10.609-0.309-19.232-4.796-28.346-9.538 c-11.266-6.375-21.377-14.725-30.043-22.102c-9.979-5.79-23.045-11.917-35.715-7.865c-0.001,0-0.001,0.001-0.002,0.001 c-0.003,0.001-0.006,0.002-0.01,0.003l-0.001,0c-0.001,0-0.002,0.001-0.002,0.001c0,0-0.001,0-0.001,0.001l0,0 c0,0-0.001,0-0.002,0.001c-0.047,0.017-0.09,0.041-0.13,0.071c0.001,0-0.001,0.001-0.002,0.001c0,0.001-0.001,0.001-0.001,0.001 c0,0,0,0-0.001,0C84.97,1.39,84.97,1.39,84.969,1.39c0,0,0,0.001-0.001,0.001c0,0,0,0,0,0.001c-0.001,0-0.002,0.001-0.003,0.002 c-0.002,0.001-0.001,0-0.002,0.001l0,0c0,0-0.001,0.001-0.001,0.001c0,0,0,0,0,0c0,0.003-0.001,0.001-0.001,0.001 c0,0-0.001,0.001-0.001,0.001c-0.003,0.002-0.005,0.005-0.008,0.007c-0.001,0.001-0.002,0.001-0.002,0.002 c-0.006,0.005-0.013,0.011-0.019,0.016c0,0.001-0.001,0.001-0.001,0.001c-0.002,0.002-0.004,0.004-0.006,0.006l0,0 c0,0.001,0,0.001-0.001,0.001c-0.001,0-0.001,0-0.002,0.001l0,0c-0.001,0.001-0.001,0.001-0.001,0.002l0,0 c-0.001,0.001-0.001,0.001-0.002,0.001c0,0.001-0.001,0.001-0.001,0.002c0,0.001-0.001,0.001-0.001,0.001 c-10.228,10.769-12.067,27.603-13.69,42.456c-0.589,5.385-1.144,10.472-2.045,15.16c-0.006,0.035-0.009,0.07-0.009,0.105 c0.451,20.293-1.563,37.179-12.854,53.626c-0.005,0.008-0.006,0.017-0.01,0.024c-0.012,0.019-0.016,0.039-0.025,0.059 c-0.024,0.053-0.039,0.107-0.043,0.163c-0.001,0.013-0.009,0.023-0.009,0.036c-0.02,12.281,4.534,22.672,8.938,32.721 c0.033,0.076,0.087,0.134,0.148,0.183c0.007,0.006,0.008,0.015,0.016,0.021c9.152,6.673,19.352,12.166,29.215,17.478 c4.798,2.583,9.758,5.255,14.51,8.016c0.011,0.006,0.024,0.006,0.036,0.012c0.013,0.006,0.022,0.017,0.035,0.022 c20.363,7.85,38.365,21.124,55.775,33.961l3.783,2.787c0.018,0.013,0.037,0.026,0.056,0.037c0.011,0.006,0.023,0.013,0.035,0.018 c13.425,6.525,24.614,8.402,34.146,5.716c0.46-0.13,0.916-0.27,1.368-0.421c0.073-0.025,0.139-0.065,0.194-0.12 c13.704-13.601,21.57-32.46,29.177-50.697c1.727-4.14,3.358-8.05,5.062-11.916c0.025-0.057,0.037-0.118,0.04-0.179 c0-0.002,0.002-0.004,0.002-0.007c0.867-27.177,2.543-48.261,5.434-68.362c0.002-0.014-0.003-0.028-0.002-0.042 c0.002-0.025,0.004-0.048,0.001-0.073C244.194,82.208,244.19,82.192,244.187,82.174z M109.64,170.637 c-1.44-2.47-2.662-4.381-3.843-6.226c-2.123-3.316-3.986-6.229-6.336-11.267c12.798,8.693,25.924,17.279,38.64,25.589 c5.244,3.427,10.622,6.941,15.973,10.462c-2.281-1.057-4.544-2.118-6.766-3.162C135.271,180.385,122.826,174.548,109.64,170.637z M80.393,54.304l-0.008,1.734c-0.061,15.947-0.13,33.933-9.729,47.553c2.79-14.95,1.458-30.057-0.452-44.221 C73.809,56.592,75.639,55.339,80.393,54.304z M81.384,56.156c3.418,8.17,6.82,16.452,10.118,24.488 c4.463,10.875,9.075,22.105,13.757,33.122l-0.082-0.031c-11.059-4.152-22.485-8.429-34.476-8.555 C81.2,91.217,81.321,72.625,81.384,56.156z M218.221,73.264c0.162,2.557,0.328,5.188,0.536,7.755 c-10.886-10.676-22.301-16.629-35.459-23.491l-2.14-1.118c8.703-3.43,17.041-7.894,25.115-12.217 c2.159-1.156,4.317-2.311,6.484-3.449C216.804,50.856,217.524,62.244,218.221,73.264z M233.408,131.421 c-5.276-17.588-9.675-33.543-13.424-48.687c9.059-1.572,13.881-1.797,23.086-0.075C238.71,97.9,236.01,113.284,233.408,131.421z M182.835,58.415c13.295,6.933,24.799,12.943,35.735,23.836c-7.561,4.753-14.783,10.153-21.77,15.383 c-9.041,6.768-18.387,13.748-28.497,19.336c0.967-5.275,1.869-10.664,2.74-15.89c2.437-14.615,4.964-29.718,9.219-44.01 L182.835,58.415z M154.756,182.889c-2.482-3.96-4.833-7.71-7.782-14.13c15.882,4.192,29.147,4.65,51.655-4.299 c-8.558,14.564-19.234,32.393-38.562,27.438C158.126,188.266,156.413,185.533,154.756,182.889z M146.061,167.346 c-17.058-13.737-28.069-32.919-38.658-51.549c23.335,11.262,37.204,14.102,59.453,3.076c-0.466,1.791-0.931,3.647-1.407,5.549 C161.614,139.739,157.274,157.08,146.061,167.346z M106.774,114.378c4.392-13.725,6.399-28.472,8.331-42.742 c1.266-9.35,2.582-18.999,4.553-28.24c14.392,24.831,29.303,50.448,47.206,74.35C144.39,129.013,130.6,125.991,106.774,114.378z M120.736,43.264c16.59,8.678,36.933,18.845,58.484,13.773c-4.226,14.275-6.736,29.321-9.164,43.879 c-0.867,5.196-1.761,10.558-2.721,15.8C149.701,93.103,134.96,67.804,120.736,43.264z M114.114,71.502 c-1.886,13.924-3.834,28.308-8.009,41.703c-4.654-10.955-9.238-22.126-13.677-32.942c-3.558-8.67-7.236-17.632-10.927-26.427 c11.147-9.112,23.012-11.157,37.314-11.313C116.755,52.002,115.413,61.912,114.114,71.502z M70.446,106.165 c11.904,0.068,23.326,4.356,34.379,8.506l0.819,0.307c-1.038,13.149-3.247,23.612-7.567,35.795 C85.083,136.124,76.279,121.911,70.446,106.165z M106.536,116.293c10.398,18.295,21.219,37.102,37.775,50.881 c-10.106-1.805-19.681-5.687-28.95-9.474c-5.344-2.183-10.865-4.431-16.457-6.275C103.191,139.407,105.441,129.07,106.536,116.293z M147.065,167.743c11.184-10.53,15.715-28.538,19.355-43.078c0.461-1.841,0.911-3.622,1.362-5.359 c9.429,18.036,20.991,32.307,31.183,43.942C181.345,170.366,167.652,173.163,147.065,167.743z M168.289,118.135 c10.365-5.667,19.892-12.8,29.11-19.7c6.796-5.087,13.812-10.339,21.135-14.984c-5.179,18.379-9.457,37.235-13.596,55.483 c-1.745,7.691-3.546,15.634-5.397,23.456C189.297,150.683,177.681,136.313,168.289,118.135z M120.426,41.971 c11.415-7.468,16.449-9.079,30.005-9.748c7.803,8.366,17.083,16.19,28.309,23.889C158.911,60.688,140.547,52.481,120.426,41.971z M148.764,31.31c-12.593,0.744-17.96,2.644-29.214,10.036c-2.226-2.905-4.48-5.972-6.662-8.943 c-7.917-10.777-16.095-21.909-26.288-30.2c15.177-0.635,31.646,9.992,46.225,19.399C138.447,25.23,143.791,28.677,148.764,31.31z M85.513,2.611c10.306,8.247,18.57,19.497,26.568,30.384c2.082,2.835,4.229,5.751,6.358,8.54 c-14.128,0.186-25.93,2.268-37.053,11.132c-0.014-2.461-0.049-4.942-0.09-7.443C81.067,30.881,80.829,16.058,85.513,2.611z M69.862,107.426c5.763,15.2,14.314,29.005,26.738,43.169c-9.694-3.54-19.714-7.113-30.506-5.569 C65.217,131.112,67.231,119.657,69.862,107.426z M138.647,177.897c-12.184-7.962-24.75-16.174-37.035-24.493 c4.531,1.611,9.009,3.441,13.37,5.222c9.806,4.006,19.944,8.14,30.752,9.821c3.131,6.924,5.582,10.838,8.174,14.973 c1.4,2.233,2.841,4.538,4.423,7.385C151.766,186.471,145.107,182.118,138.647,177.897z M172.588,192.874 c12.593-3.549,20.765-17.457,27.136-28.302l0.047-0.08c4.913,9.762,10.884,21.724,15.244,33.84 c-18.588,7.229-35.464,2.045-51.207-4.754C166.955,193.908,169.876,193.639,172.588,192.874z M200.429,163.578 c7.214-6.001,14.294-12.35,21.144-18.493c3.626-3.251,7.363-6.603,11.099-9.884c-1.53,5.707-3.026,11.488-4.478,17.095 c-3.821,14.762-7.767,30.012-12.564,44.79C211.211,185.036,205.276,173.206,200.429,163.578z M220.905,144.341 c-6.573,5.895-13.362,11.97-20.268,17.749c1.807-7.656,3.57-15.414,5.276-22.935c4.094-18.048,8.332-36.687,13.433-54.862 c3.815,15.305,8.289,31.449,13.667,49.282C228.94,137.136,224.857,140.797,220.905,144.341z M235.574,139.041l-1.482-5.335 c2.301-16.265,4.633-30.277,8.079-43.857c-2.164,17.054-3.515,35.25-4.295,57.52C237.033,144.283,236.353,141.838,235.574,139.041z M226.566,46.723c2.023,3.778,3.935,7.654,5.774,11.557c-3.993-7.015-8.761-13.392-14.841-16.844 C220.553,42.232,222.978,43.51,226.566,46.723z M238.54,72.885c1.475,3.155,2.875,6.13,4.239,8.707 c-9.032-1.651-13.938-1.408-22.954,0.156c-0.239-2.813-0.427-5.722-0.606-8.547c-0.691-10.926-1.415-22.207-5.354-32.344 C225.532,45.07,232.727,60.454,238.54,72.885z M179.172,41.812c6.73,0.545,12.654,0.569,18.703,0.217 c-6.991,0.761-13.48,0.774-19.973-0.274C178.323,41.781,178.746,41.8,179.172,41.812z M209.782,41.196 c-1.327,0.705-2.656,1.406-3.981,2.116c-8.289,4.438-16.859,9.022-25.788,12.467c-10.431-7.096-19.179-14.288-26.627-21.906 C173.31,44.944,188.651,45.246,209.782,41.196z M120.263,9.987c4.202,3.583,8.772,7.408,13.662,11.134 c-0.187-0.121-0.371-0.239-0.559-0.36c-13.617-8.786-28.87-18.623-43.356-19.515C100.838-0.167,111.74,5.05,120.263,9.987z M72.218,44.005c1.588-14.532,3.226-29.53,11.785-40.018c-4.157,13.148-3.927,27.422-3.705,41.251 c0.044,2.705,0.085,5.389,0.095,8.045c-4.541,0.964-6.576,2.098-10.013,4.696C71.155,53.606,71.679,48.938,72.218,44.005z M70.17,67.275c1.356,12.392,1.809,25.321-0.886,38.069c-1.263,0.707-2.382,1.322-3.449,1.908c-2.365,1.299-4.476,2.461-7.447,4.234 C64.368,102.288,69.623,90.147,70.17,67.275z M57.228,113.351c3.9-2.374,6.309-3.696,9.088-5.223c0.85-0.467,1.729-0.95,2.69-1.485 c-2.565,11.862-4.592,22.951-4.035,36.208C60.879,133.438,57.272,124.312,57.228,113.351z M95.019,162.592 c-9.473-5.102-19.257-10.37-28.094-16.679c10.437-1.28,20.24,2.301,29.734,5.769l1.237,0.451c2.699,6.008,4.721,9.167,7.059,12.818 c0.931,1.454,1.887,2.947,2.954,4.723C103.652,167.241,99.272,164.882,95.019,162.592z M165.494,204.679 c-14.418-10.631-29.242-21.561-45.504-29.495c9.254,3.477,18.18,7.666,26.892,11.755c4.084,1.917,8.306,3.898,12.525,5.791 c3.713,4.991,5.584,7.738,8.321,13.594L165.494,204.679z M161.262,193.558c15.911,7.043,32.965,12.941,51.841,6.54 c-14.272,11.56-24.566,13.164-43.754,7.363C166.469,201.092,164.572,198.071,161.262,193.558z M203.861,212.71 c-8.114,2.664-17.523,1.82-28.625-2.61c15.656,3.721,25.37,1.328,38.191-8.977C210.565,205.277,207.409,209.176,203.861,212.71z M232.736,162.421c-4.611,11.054-9.331,22.328-15.372,32.502c4.452-14.031,8.186-28.418,11.799-42.376 c1.436-5.547,2.917-11.262,4.43-16.907l1.019,3.669c1.015,3.647,1.86,6.688,3.124,11.339 C236.052,154.471,234.441,158.334,232.736,162.421z" fill="#03989e"/></g><g id="change3_1"><path d="M388.911,221.708c-0.002-0.016-0.012-0.028-0.016-0.043c-0.01-0.041-0.024-0.079-0.044-0.116 c-0.011-0.021-0.024-0.039-0.038-0.058c-0.011-0.015-0.018-0.033-0.031-0.047c-11.537-12.255-23.883-25.853-37.746-41.573 c-0.01-0.011-0.023-0.015-0.033-0.025c-0.031-0.03-0.064-0.056-0.102-0.077c-0.021-0.012-0.042-0.02-0.064-0.028 c-0.018-0.007-0.034-0.019-0.053-0.024c-12.671-3.214-25.158-6.331-38.998-9.779c-0.069-0.017-0.137-0.015-0.204-0.004 c-0.005,0.001-0.01-0.002-0.015-0.001c-16.912,3.348-32.3,7.138-47.051,11.592c-0.001,0-0.002,0.002-0.003,0.002 c-0.058,0.018-0.114,0.046-0.164,0.086c-8.998,7.159-18.076,14.521-26.855,21.64c-5.275,4.278-10.549,8.555-15.839,12.816 c-0.049,0.038-0.091,0.084-0.124,0.14l0,0c0,0,0,0,0,0.001c-0.005,0.009-0.01,0.017-0.015,0.027 c-5.636,10.889-10.087,20.924-14.006,31.581c-0.025,0.068-0.035,0.141-0.029,0.213c0.44,5.357,0.829,10.782,1.198,16.109 c-0.053,0.284-0.105,0.566-0.158,0.849c-0.005,0.027,0.011,0.05,0.01,0.076c-0.002,0.054-0.013,0.107,0.003,0.16 c0.094,0.313,0.191,0.634,0.286,0.949c0.053,0.764,0.105,1.528,0.157,2.287c0.865,12.574,1.759,25.577,3.246,38.359 c0.001,0.013,0.011,0.022,0.013,0.034c0.01,0.055,0.032,0.107,0.061,0.157c0.011,0.019,0.018,0.039,0.032,0.057 c0.005,0.007,0.006,0.015,0.012,0.021c11.998,13.881,24.703,27.521,36.989,40.711l2.369,2.544c0.008,0.009,0.02,0.009,0.028,0.017 c0.022,0.021,0.043,0.042,0.069,0.059c0.024,0.016,0.051,0.024,0.078,0.036c0.014,0.006,0.026,0.014,0.04,0.018 c0.009,0.003,0.017,0.01,0.026,0.012c0.003,0.001,0.005,0.003,0.008,0.004c3.414,0.818,6.826,1.673,10.24,2.527 c9.265,2.319,18.845,4.716,28.402,6.36c0.057,0.01,0.116,0.01,0.173,0c1.372-0.246,2.565-0.51,3.634-0.811 c4.283-1.207,6.556-2.996,10.252-6.411c0.016-0.015,0.023-0.034,0.037-0.05c0.014-0.017,0.031-0.031,0.043-0.05 c0.003-0.005,0.009-0.008,0.012-0.014c0.853-1.457,1.7-2.938,2.553-4.427c4.522-7.904,9.199-16.077,15.78-22.402 c2.831-3.68,5.212-6.284,7.964-8.398c3.622-2.384,7.772-4.51,12.635-6.406c0.006-0.003,0.013-0.006,0.019-0.008 c7.558-3.269,16.875-5.679,29.411-7.607c11.277-4.018,16.753-10.567,22.913-21.247c0.001-0.002,0.001-0.004,0.002-0.005 c0.004-0.007,0.008-0.013,0.011-0.02c0.001,0,0.001-0.001,0.001-0.002c0.001,0,0.002-0.001,0.001-0.002 c0.003-0.009,0.001-0.002,0.001-0.002c0,0,0.001-0.001,0.001-0.001c0.004-0.011,0.001-0.002,0.001-0.002 c0-0.001,0.001-0.001,0.001-0.002l0,0c0-0.001,0-0.001,0-0.002c0,0,0,0,0,0c0.001-0.001,0.003-0.002,0.001-0.002 c0-0.001,0-0.001,0-0.002c0.001-0.001,0.001-0.001,0.001-0.002c0,0,0,0,0.001-0.002c-0.001-0.001,0-0.002,0.001-0.002l0-0.001 c0,0,0-0.001,0.001-0.001l0-0.001c0,0,0.001-0.001,0.001-0.001c0.002-0.01,0.001-0.002,0.001-0.002c0-0.001,0.001-0.001,0.001-0.002 c0.001,0,0.001-0.001,0.001-0.002l0,0c0-0.002,0.001-0.003,0.002-0.005c0.006-0.015,0.002-0.031,0.006-0.047 c0.015-0.051,0.021-0.101,0.019-0.153c0-0.015,0.007-0.029,0.005-0.043c-0.826-7.063-1.804-14.216-2.749-21.134 c-1.713-12.533-3.484-25.491-4.414-38.349c-0.001-0.008-0.005-0.015-0.006-0.023C388.909,221.721,388.912,221.715,388.911,221.708z M311.053,315.569c8.772-17.386,19.433-25.057,36.899-33.442l0.016,0.63c0.247,9.478,0.473,18.434-4.777,26.715 C331.794,310.7,322.089,312.544,311.053,315.569z M267.624,330.206c0.956-8.777,0.972-17.793,0.98-26.519 c0.011-11.344,0.04-23.058,2.143-34.306c3.837,4.599,7.79,9.219,11.624,13.696c9.117,10.646,18.536,21.651,26.968,33.076 C294.053,323.469,282.718,327.912,267.624,330.206z M309.41,317.228c-1.269,6.23-2.195,12.594-3.093,18.758 c-0.725,4.981-1.474,10.125-2.399,15.165c-10.649-3.154-20.235-9.69-29.51-16.013c-1.964-1.34-3.986-2.718-5.983-4.038 C283.205,328.777,294.432,324.382,309.41,317.228z M264.816,182.624c7.694,3.533,11.408,5.072,17.483,7.587l3.252,1.349 c-17.945,6.086-32.139,13.624-46.609,24.815c4.785-6.571,9.829-13.025,14.726-19.292 C257.35,192.371,261.153,187.501,264.816,182.624z M311.803,171.115c10.238,6.805,20.664,13.676,30.752,20.324l4.226,2.785 c-3.835-0.313-7.715-0.654-11.494-0.991c-15.303-1.367-31.105-2.759-46.541-2.182l0.377-0.244 C297.51,185.397,306.171,179.799,311.803,171.115z M351.128,181.487c12.313,13.948,23.435,26.224,33.862,37.376 c-11.915-8.061-23.83-16.122-35.734-24.2C350.424,189.657,350.965,186.773,351.128,181.487z M283.13,282.427 c-3.817-4.457-7.756-9.057-11.575-13.633c24.207,1.31,48.327,6.691,71.666,11.897l3.692,0.823 c-17.405,8.416-28.068,16.237-36.892,33.871C301.6,303.993,292.213,293.033,283.13,282.427z M343.439,279.716 c-23.565-5.257-47.925-10.686-72.41-11.945c4.337-25.604,15.663-33.838,38.483-44.946c7.206,16.811,18.465,31.864,29.363,46.422 c2.777,3.709,5.633,7.532,8.376,11.318L343.439,279.716z M231.589,269.068c0.331-1.853,0.65-3.731,0.968-5.632 c2.485-14.837,5.079-30.148,16.214-40.437c-2.148,14.718,8.451,28.632,17.023,39.882c1.226,1.609,2.381,3.136,3.489,4.637 C254.491,264.806,244.232,263.684,231.589,269.068z M269.851,268.635c-2.226,11.509-2.237,23.474-2.247,35.051 c-0.008,8.467-0.016,17.208-0.893,25.712c-1.537-2.255-3.09-4.513-4.648-6.777c-11.388-16.555-23.161-33.67-30.486-52.475 C244.375,264.569,254.668,265.829,269.851,268.635z M243.595,221.071c1.275,0.12,2.589,0.243,4.879,0.806 c-11.731,10.519-14.359,26.209-16.902,41.393c-0.167,0.999-0.334,1.993-0.502,2.981c-1.72-18.615,0.019-32.764,5.671-46.656 C240.304,220.76,241.904,220.911,243.595,221.071z M309.851,221.509c-8.068-8.757-16.371-17.829-22.104-29.438 c15.698-0.68,31.835,0.762,47.45,2.157c4.074,0.365,8.277,0.74,12.403,1.07c-9.111,9.372-20.762,16.214-32.039,22.837 C313.645,219.262,311.737,220.382,309.851,221.509z M308.412,221.422c-2.337-0.383-4.743-0.809-7.271-1.26 c-16.322-2.907-34.716-6.176-49.694,0.053c7.16-7.788,15.869-13.92,24.312-19.862c3.649-2.568,7.414-5.224,11.027-7.987 C292.419,203.832,300.486,212.811,308.412,221.422z M249.959,221.97c15.012-7.237,34.13-3.829,51.007-0.823 c2.482,0.442,4.853,0.864,7.154,1.243c-22.322,10.944-33.55,19.371-37.976,44.597c-1.124-1.524-2.311-3.081-3.554-4.713 C257.451,250.279,247.099,236.692,249.959,221.97z M339.676,268.648c-10.758-14.373-21.875-29.224-29.043-45.732 c6.815,1.942,13.62,3.915,20.424,5.89c13.136,3.811,26.712,7.75,40.153,11.379c-3.101,5.141-5.896,10.671-8.601,16.026 c-4.209,8.331-8.558,16.938-14.164,24.294C345.583,276.54,342.582,272.53,339.676,268.648z M331.336,227.845 c-6.771-1.964-13.543-3.925-20.325-5.857c1.675-0.997,3.358-1.992,5.057-2.989c11.417-6.706,23.209-13.642,32.443-23.216 c6.302,16.02,14.781,30.799,22.389,43.277C357.654,235.476,344.282,231.601,331.336,227.845z M284.189,193.079 c-2.979,2.215-6.031,4.363-9.004,6.456c-9.03,6.355-18.362,12.928-25.84,21.534c-2.75-0.715-4.233-0.86-5.657-0.995 c-1.624-0.153-3.066-0.298-6.188-1.289C252.146,207.132,266.303,199.32,284.189,193.079z M230.377,269.307 c-1.204-0.149-2.278-0.263-3.282-0.367c-4.532-0.471-7.849-0.822-17.343-4.133c2.814-4.791,5.53-9.675,8.158-14.403 c5.147-9.258,10.455-18.793,16.618-27.803C229.586,236.317,228.339,250.589,230.377,269.307z M209.802,265.885 c9.325,3.233,12.649,3.579,17.191,4.05c1.04,0.108,2.147,0.223,3.408,0.382l-0.038,0.466c-1.089,13.206-2.214,26.842-5.314,40.016 c-6.23-15.647-11.183-31.335-15.239-44.808C209.807,265.956,209.804,265.92,209.802,265.885z M224.834,312.837 c7.018,10.139,14.371,20.278,21.482,30.083c0.19,0.262,0.379,0.524,0.569,0.785c-10.762-11.56-21.758-23.446-32.259-35.518 c2.513,1.152,4.421,2.019,6.676,3.044L224.834,312.837z M247.127,342.334c-6.806-9.385-13.833-19.072-20.573-28.772 c13.191,5.541,26.574,11.413,39.816,17.473c-4.203,7.872-6.989,11.777-14.224,18.225 C250.474,346.95,248.801,344.641,247.127,342.334z M225.746,312.141c3.228-13.206,4.421-26.862,5.515-40.115 c7.398,18.314,18.864,35.006,29.978,51.163c1.476,2.145,2.94,4.283,4.398,6.42C252.359,323.546,238.952,317.673,225.746,312.141z M348.967,282.73l-0.022-0.852c2.719,0.195,5.451,0.438,8.332,0.694c12.447,1.105,25.303,2.246,37.186-0.492 c-7.296,10.557-20,15.083-32.299,19.465c-5.892,2.099-11.966,4.263-17.289,7.067C349.43,300.481,349.205,291.843,348.967,282.73z M357.366,281.576c-2.76-0.245-5.383-0.476-7.993-0.668c5.592-7.385,9.936-15.948,14.129-24.247 c2.668-5.281,5.432-10.723,8.475-15.786c2.771,4.909,5.671,9.827,8.482,14.592c4.879,8.268,9.921,16.811,14.391,25.494 C382.954,283.848,369.949,282.693,357.366,281.576z M372.084,239.083c-7.544-12.349-16.003-26.999-22.336-42.877 c12.262,8.32,24.536,16.623,36.81,24.927l1.136,0.768C382.073,229.116,378.73,232.674,372.084,239.083z M350.152,180.588 c-0.125,5.661-0.605,8.402-1.785,13.484l-5.263-3.468c-9.432-6.217-19.161-12.627-28.754-18.997 C326.945,174.746,338.477,177.628,350.152,180.588z M310.596,171.144c-5.526,8.186-13.903,13.59-22.015,18.822l-1.667,1.077 l-4.232-1.756c-5.842-2.419-9.488-3.93-16.609-7.187C280.064,177.921,294.656,174.332,310.596,171.144z M238.124,204.028 c7.768-6.299,15.769-12.787,23.741-19.157c-2.982,3.914-6.023,7.806-8.985,11.597c-5.568,7.125-11.322,14.49-16.681,22.002 c-3.847-0.066-6.324-0.323-13.169-2.226C228.07,212.181,233.097,208.104,238.124,204.028z M222.248,217.064 c6.592,1.853,9.307,2.285,13.247,2.391c-6.97,9.795-12.808,20.298-18.458,30.462c-2.269,4.082-4.602,8.279-7.006,12.429 C212.833,247.362,215.911,231.961,222.248,217.064z M208.486,248.057c2.753-7.475,5.77-14.646,9.279-22.027 c-3.863,11.371-6.224,22.898-8.357,34.211C209.121,256.19,208.818,252.105,208.486,248.057z M210.117,270.456 c3.844,12.596,8.461,26.823,14.125,41.013l-2.525-1.148c-2.781-1.264-5.017-2.279-8.534-3.898 C211.799,294.45,210.932,282.284,210.117,270.456z M253.161,349.69c7.072-6.349,9.894-10.328,14.082-18.167 c2.197,1.441,4.433,2.962,6.604,4.441c9.199,6.272,18.704,12.739,29.306,15.989c-10.525,6.614-27.088,2.825-40.471-0.241 C259.269,350.93,256.047,350.201,253.161,349.69z M290.674,358.374c-4.26-0.734-8.528-1.62-12.772-2.582 c8.028,1.182,16.038,1.359,22.543-1.325C297.957,356.357,295.394,357.523,290.674,358.374z M322.332,324.545 c-2.834,2.721-5.319,5.784-7.589,9.019c2.823-4.314,5.907-8.14,9.599-11.535C323.688,322.811,323.021,323.647,322.332,324.545z M330.725,315.812c-11.943,7.761-18.248,18.241-25.302,32.555c0.696-4.095,1.3-8.218,1.885-12.236 c0.928-6.377,1.892-12.966,3.228-19.387c10.144-2.815,19.1-4.625,29.213-5.87C336.072,312.407,333.241,313.927,330.725,315.812z M352.852,306.069c3.095-1.245,6.325-2.398,9.648-3.582c10.303-3.671,20.88-7.451,28.46-14.774 c-4.648,6.648-9.744,11.128-18.1,14.113C365.093,303.015,358.532,304.402,352.852,306.069z M392.339,260.235 c0.823,6.023,1.671,12.224,2.421,18.385c-4.232-8.059-8.906-15.978-13.44-23.661c-2.89-4.896-5.873-9.956-8.711-14.994 c6.605-6.363,9.987-9.937,15.411-16.858C388.975,235.574,390.681,248.104,392.339,260.235z" fill="#03989e"/></g></svg>