<?xml version="1.0" encoding="UTF-8" standalone="no"?><svg xmlns="http://www.w3.org/2000/svg" xmlns:xlink="http://www.w3.org/1999/xlink" fill="#000000" height="258.3" preserveAspectRatio="xMidYMid meet" version="1" viewBox="0.0 0.5 258.9 258.3" width="258.9" zoomAndPan="magnify"><g><g fill="#03989e" id="change1_1"><path d="M207,67.8c-1.5-0.6-2.9-1.3-4.4-1.9c-14.8-6.4-25.4-15.6-35.4-30.7c-1.3-1.9-2.6-4.1-4-6.3 c-7.8-12.6-17.6-28.4-33.7-28C110.5,1.2,99.1,20.6,88,39.3c-6.8,11.5-13.2,22.3-21,28.6c-6.1,4.9-14.3,9.3-22.9,14 C23.4,93.1,0,105.8,0,129.4c0,21.4,23.4,35.6,44,48.1c10.2,6.2,19.9,12,26.2,18.3C76.4,202,81.5,211,87,220.6 c10.6,18.8,21.6,38.2,42.3,38.2c0,0,0.1,0,0.1,0c67.6-0.3,129.3-62,129.4-129.4C258.9,90.2,237.1,80.8,207,67.8z M129.4,257.9 c0,0-0.1,0-0.1,0c-20.1,0-31-19.2-41.5-37.7c-5.4-9.6-10.6-18.8-16.9-25c-6.4-6.3-16.1-12.2-26.4-18.4C24.1,164.3,1,150.3,1,129.4 c0-23,23.1-35.5,43.5-46.6c8.7-4.7,16.9-9.1,23-14.1c8-6.4,14.4-17.3,21.3-28.9c10.9-18.5,22.3-37.6,40.6-38c0.2,0,0.3,0,0.5,0 c15.2,0,24.7,15.3,32.3,27.6c1.4,2.2,2.7,4.4,4,6.3c10.2,15.3,20.9,24.6,35.9,31.1c1.5,0.6,3,1.3,4.4,1.9 c29.8,12.8,51.4,22.1,51.3,60.7C257.7,196.4,196.5,257.6,129.4,257.9z" fill="inherit"/><path d="M246.4,128.7c-1.3-29.5-24.3-41.4-48.7-54l-3-1.6c-8.7-4.5-17.5-12.7-26-20.7c-12.8-12-26.1-24.4-40-25 c-15.6-0.7-30.2,14.7-43.2,28.3c-6.2,6.5-12.1,12.7-17.7,16.8c-5.3,3.9-11.4,7.4-17.8,11c-18.8,10.7-38.3,21.8-39,45.1 c-0.7,20.5,20,34.2,38.3,46.3c8.2,5.4,15.9,10.6,21.3,16c5.4,5.5,10.3,12.8,15.4,20.5c11.3,17.1,22.9,34.7,42.8,34.9 c0.3,0,0.6,0,0.9,0c29.2,0,59.4-13.9,82.9-38.3C235.2,184.7,247.6,155.7,246.4,128.7z M211.8,207.4c-23.4,24.2-53.3,38-82.2,38 c-0.3,0-0.6,0-0.9,0c-19.4-0.2-30.8-17.6-41.9-34.4c-5.1-7.8-10-15.2-15.5-20.7c-5.4-5.4-13.2-10.6-21.4-16.1 c-18-12-38.5-25.6-37.8-45.5c0.8-22.8,20-33.7,38.5-44.3c6.5-3.7,12.6-7.2,17.9-11.1c5.7-4.2,11.6-10.4,17.8-16.9 c12.5-13.1,26.7-28,41.5-28c0.3,0,0.6,0,0.9,0c13.6,0.6,26.7,12.9,39.4,24.8c8.5,8,17.3,16.2,26.2,20.8l3,1.6 c24.1,12.5,46.9,24.2,48.2,53.1C246.6,155.5,234.3,184.2,211.8,207.4z" fill="inherit"/><path d="M189.1,79.5l-2-1.2c-5.2-3-10.5-6.7-16.2-10.5c-14.8-10.1-30.1-20.5-43.9-21C111.3,46.3,93.3,58.9,77.4,70 c-3.1,2.1-6,4.2-8.7,6c-3.4,2.3-7,4.5-10.8,6.8c-17.3,10.5-37,22.4-36.9,43.9c0.1,18.9,17.7,32.6,33.2,44.7 c6.1,4.8,11.9,9.3,16.6,13.9c4.3,4.4,8.6,9.8,13,15.6c11.4,14.9,24.4,31.8,42.9,31.8c0.1,0,0.3,0,0.4,0 c27.5-0.4,58.1-15.5,79.8-39.6c18.6-20.6,28.1-44.8,26.2-66.5C230.8,103.8,208.7,90.9,189.1,79.5z M206,192.5 c-21.5,23.8-51.8,38.9-79.1,39.2c-0.1,0-0.2,0-0.4,0c-18,0-30.8-16.7-42.1-31.4c-4.5-5.8-8.7-11.3-13.1-15.7 c-4.7-4.7-10.5-9.2-16.6-14c-16.1-12.5-32.7-25.5-32.8-43.9c-0.1-21,19.3-32.7,36.4-43.1c3.8-2.3,7.5-4.5,10.9-6.8 c2.8-1.9,5.7-3.9,8.7-6c14.7-10.3,32.9-23,48.1-23c0.3,0,0.6,0,0.9,0c13.5,0.5,28.7,10.8,43.4,20.8c5.7,3.9,11.1,7.5,16.3,10.6 l2,1.2c19.4,11.3,41.3,24.1,43.3,46.4C233.8,148.2,224.4,172.1,206,192.5z" fill="inherit"/><path d="M179.1,81.8c-23.1-14.3-41.6-21.4-54.9-21.4c-17,0.1-60.5,17.8-82,39.6c-8.2,8.3-12.4,16.4-12.3,24 c0.2,18.7,15.9,32.5,29.8,44.6c4,3.5,7.8,6.8,11.1,10.2c3.3,3.3,6.4,6.9,9.8,10.7c11.9,13.4,25.3,28.6,43.6,28.8 c0.2,0,0.4,0,0.7,0c23.8,0,50.7-13.4,70.2-35c17-18.9,25.6-40.5,23.4-59.3C216.3,104.7,194.8,91.4,179.1,81.8z M194.3,182.5 c-19.3,21.4-45.9,34.7-69.4,34.7c-0.2,0-0.4,0-0.7,0c-17.8-0.2-30.5-14.6-42.8-28.4c-3.4-3.8-6.6-7.4-9.9-10.7 c-3.4-3.4-7.2-6.7-11.2-10.2c-13.7-12-29.2-25.7-29.4-43.9c-0.1-7.3,4-15.1,12-23.3c20.9-21.2,64.8-39.2,81.3-39.3 c0.1,0,0.1,0,0.2,0c13.1,0,31.4,7.2,54.3,21.3c15.5,9.6,36.7,22.7,38.9,41.4C219.6,142.5,211.2,163.9,194.3,182.5z" fill="inherit"/><path d="M169.3,85.2c-17.2-9.5-37.1-16.1-48.4-16.1c0,0,0,0,0,0c-15.8,0-53.4,9.6-72.1,28.5 c-7,7.1-10.5,14.8-10.5,22.8c0.2,18.7,14.9,32.9,27.8,45.5c1.8,1.7,3.5,3.4,5.2,5.1c1.6,1.6,3.1,3.2,4.7,4.8 c12.4,12.7,26.4,27,44.8,27.2c0.2,0,0.3,0,0.5,0c21.6,0,44.8-11.4,62-30.5c14.7-16.4,22-35.4,20.1-52.1 C202.2,109.2,189.7,96.4,169.3,85.2z M182.6,171.8c-16.8,18.7-40.2,30.2-61.2,30.2c-0.1,0-0.3,0-0.4,0 c-18-0.1-31.9-14.3-44.1-26.9c-1.6-1.6-3.2-3.3-4.7-4.8c-1.7-1.7-3.4-3.4-5.2-5.1c-12.8-12.4-27.3-26.6-27.5-44.8 c-0.1-7.7,3.3-15.2,10.2-22.1c18.3-18.5,56.2-28.2,71.4-28.2c0,0,0,0,0,0c22.6,0,78.7,26.3,81.5,50.4 C204.4,136.9,197.1,155.6,182.6,171.8z" fill="inherit"/><path d="M117.7,74.3c-0.1,0-0.3,0-0.4,0c-13.5,0.2-46.4,5.8-62.3,22.1c-5.8,5.9-8.6,12.7-8.5,20.1 c0.2,13.1,9.7,30.7,24.8,45.9c15.4,15.4,32.6,24.8,46,25c0.2,0,0.5,0,0.8,0c18.4,0,37.9-9.3,52.2-24.9 c12.9-14.1,19.4-30.9,17.9-46C185.5,91.8,137.7,74.3,117.7,74.3z M169.4,161.8c-14.1,15.4-33.3,24.6-51.4,24.6c-0.2,0-0.5,0-0.7,0 c-12.9-0.2-30.3-9.6-45.3-24.7c-14.9-15-24.4-32.3-24.6-45.2c-0.1-7.1,2.7-13.6,8.2-19.4c6.1-6.3,14.8-11,24-14.4 c-6.4,2.4-12.3,5.7-17,10.2c-5.6,5.5-8.4,12-8.3,19.5c0.1,13.2,8.2,29.1,21.2,41.6c11.6,11.2,25,17.5,36.9,17.5c0.3,0,0.7,0,1,0 c16.6-0.5,33.5-8.5,45.1-21.4c10-11,14.9-24.4,14-37.7c-1.8-25.3-40.6-34.7-59.1-35.3C106.2,77,93.6,78,81.8,82 c13.6-4.7,27.7-6.6,35.4-6.7C127.9,75.2,145,80,158.8,87c9.9,5,26.8,15.5,28.2,29.6C188.6,131.4,182.1,147.9,169.4,161.8z M63.3,93.7C76,81.3,99.3,78.2,111.4,78.2c0.7,0,1.3,0,2,0c8.5,0.3,22.8,2.6,35.3,8.2c9.9,4.5,21.9,12.7,22.9,26.1 c0.9,13-3.9,26.1-13.7,37c-11.5,12.7-28.1,20.6-44.4,21.1c-11.9,0.4-25.4-5.9-37.2-17.2c-12.8-12.3-20.8-28-20.9-40.9 C55.3,105.3,58,99,63.3,93.7z M80.2,82.6c0.4-0.1,0.8-0.3,1.1-0.4C80.9,82.3,80.6,82.5,80.2,82.6z" fill="inherit"/><path d="M109.5,156c0.1,0,0.2,0,0.3,0c13-0.1,25.8-5.8,35-15.6c8.5-9,12.9-20.3,12.3-31.8c-0.5-9.6-6.7-17.6-17.9-23 c-8.4-4-19.4-6.5-29.5-6.6c-13.5-0.1-31.2,3-40.6,12.4c-4.6,4.6-6.9,10.4-6.8,17.2C62.7,132.2,86.4,156,109.5,156z M69.9,92.2 c8.9-9,25.8-12.2,38.9-12.2c0.3,0,0.6,0,0.9,0c17.4,0.2,45.4,8.2,46.4,28.6c0.6,11.2-3.7,22.2-12.1,31 c-9.1,9.6-21.6,15.2-34.3,15.3c-0.1,0-0.2,0-0.3,0c-22.5,0-45.8-23.3-46.1-46.4C63.3,102.1,65.5,96.6,69.9,92.2z" fill="inherit"/><path d="M106.5,140.8c0.1,0,0.2,0,0.3,0c9,0,18.2-4,25-11c6.8-6.9,10.5-15.9,10.3-24.7c-0.2-7.9-4.6-14.5-12.9-18.9 c-6.3-3.4-14.8-5.4-22.7-5.4c0,0,0,0-0.1,0c-9.9,0-23,3.3-30.2,10.6c-3.7,3.8-5.6,8.4-5.5,13.6C71.2,123,88.8,140.7,106.5,140.8z M77,92.2c7-7.1,19.8-10.3,29.5-10.3c0,0,0,0,0.1,0c13.2,0,34.2,6.3,34.6,23.3c0.2,8.6-3.5,17.3-10,24 c-6.8,6.9-15.8,10.8-24.6,10.7c-16.8-0.2-34.3-17.7-34.7-34.7C71.7,100.2,73.5,95.9,77,92.2z" fill="inherit"/><path d="M103.6,126.3c0.1,0,0.2,0,0.3,0c13.3-0.1,24-10.9,23.9-23.9c0-5.8-2.9-10.6-8.1-13.9 c-4.3-2.7-10-4.3-15.8-4.3c-6-0.1-14.2,1.6-19.3,6.8c-3.1,3.1-4.7,7-4.6,11.5c0.1,6.4,2.6,12.4,7.1,16.9 C91.4,123.8,97.3,126.3,103.6,126.3z M85.2,91.6c4.8-4.8,12.5-6.5,18.2-6.5c0.1,0,0.3,0,0.4,0c15.7,0.2,22.9,9.1,22.9,17.2 c0.1,12.5-10.2,22.8-22.9,22.9c-6.1,0.1-11.8-2.3-16.1-6.7c-4.3-4.4-6.7-10.1-6.8-16.2C80.8,98.1,82.3,94.5,85.2,91.6z" fill="inherit"/><path d="M101.9,112.7c0,0,0.1,0,0.1,0c3.3,0,6.5-1.4,8.8-3.8c2.2-2.3,3.4-5.3,3.4-8.5c-0.1-6.4-4.9-10.6-12.2-10.6 c-7.3-0.1-12.1,4.1-12.2,10.6c0,3.3,1.2,6.4,3.5,8.7C95.6,111.4,98.6,112.7,101.9,112.7z M101.9,90.8c0.1,0,0.1,0,0.2,0 c6.8,0.1,11.1,3.8,11.2,9.6c0,2.9-1.1,5.7-3.1,7.8c-2.1,2.2-5.1,3.4-8.1,3.4c-3,0-5.9-1.1-8-3.3c-2.1-2.1-3.2-4.9-3.2-7.9 C90.9,94.6,95.2,90.8,101.9,90.8z" fill="inherit"/></g></g></svg>